<svg width="171" height="105" viewBox="0 0 171 105" fill="none" xmlns="http://www.w3.org/2000/svg">
<g clip-path="url(#clip0_157716_2993)">
<mask id="mask0_157716_2993" style="mask-type:luminance" maskUnits="userSpaceOnUse" x="0" y="0" width="171" height="105">
<path d="M171 0H0V105H171V0Z" fill="white"/>
</mask>
<g mask="url(#mask0_157716_2993)">
<path d="M115.312 39.3961C115.207 39.1197 115.095 39.0691 113.599 39.1993C112.02 39.5367 110.379 39.4254 108.86 38.8779C103.832 37.2712 104.615 30.3977 104.966 25.2659C105.038 24.0304 105.069 22.8977 105.122 21.9337C105.134 21.8042 105.095 21.6751 105.012 21.5748C104.929 21.4745 104.81 21.4111 104.681 21.3986C104.551 21.3862 104.422 21.4256 104.322 21.5083C104.221 21.591 104.158 21.7102 104.146 21.8397C103.885 23.3202 102.47 28.9091 103.315 33.8216C103.803 36.729 105.122 39.1374 107.873 40.2171C107.972 41.353 108.034 43.2698 108.485 46.3426C108.492 46.4497 108.54 46.5499 108.62 46.6218C108.699 46.6937 108.804 46.7316 108.911 46.7274C108.964 46.7252 109.017 46.7123 109.065 46.6896C109.113 46.6669 109.157 46.6348 109.192 46.5951C109.228 46.5555 109.256 46.5091 109.273 46.4587C109.291 46.4084 109.298 46.355 109.295 46.3017C109.467 44.4561 109.53 42.6019 109.484 40.7489C110.957 41.1314 112.509 41.0911 113.96 40.6324C114.336 40.4814 115.499 39.862 115.312 39.3961Z" fill="#FED6A4"/>
<path d="M107.849 33.1637C107.957 33.3198 108.082 33.4627 108.223 33.5894C108.591 33.9483 109.067 34.1761 109.577 34.238C110.088 34.2998 110.604 34.1922 111.047 33.9317C111.706 33.5936 112.27 33.0966 112.688 32.4856C112.966 32.0671 113.423 30.8404 112.958 30.5954C112.636 30.4275 111.564 31.4292 111.494 31.5096C110.851 32.1522 109.962 33.0183 109.282 32.4021L108.93 32.0703C108.185 31.1601 108.194 31.0219 107.818 31.0942C107.135 31.2613 107.516 32.6399 107.849 33.1637Z" fill="#FED6A4"/>
<path d="M109.499 28.4038C110.361 28.4617 110.806 28.4914 110.859 28.8609C110.917 29.2907 109.508 29.8097 109.426 29.837C109.166 29.9302 108.896 29.972 108.637 30.0443C108.511 30.0651 108.381 30.055 108.26 30.0149C108.139 29.9748 108.029 29.9058 107.94 29.8139C107.851 29.722 107.786 29.61 107.75 29.4874C107.714 29.3648 107.709 29.2353 107.734 29.11C107.956 27.646 108.307 26.2043 108.782 24.8016C109.045 24.13 109.7 22.5699 110.37 22.8495C111.084 23.1467 110.115 25.7921 109.82 27.0333C109.706 27.4904 109.602 27.9491 109.499 28.4038Z" fill="#FED6A4"/>
<path d="M114.649 23.8368C115.013 23.8368 115.314 24.3043 115.314 24.8811C115.314 25.458 115.013 25.9199 114.649 25.9199C114.285 25.9199 113.984 25.4523 113.984 24.8811C113.984 24.31 114.286 23.8368 114.649 23.8368Z" fill="#FED6A4"/>
<path d="M140.235 26.965C140.609 26.965 140.9 27.4326 140.9 28.0134C140.9 28.5942 140.609 29.0521 140.235 29.0521C139.86 29.0521 139.57 28.5846 139.57 28.0134C139.57 27.4422 139.872 26.965 140.235 26.965Z" fill="#FED6A4"/>
<path d="M153.361 28.3894C153.725 28.3894 154.025 28.857 154.025 29.4281C154.025 29.9993 153.725 30.4765 153.361 30.4765C152.997 30.4765 152.696 30.009 152.696 29.4281C152.696 28.8473 152.987 28.3894 153.361 28.3894Z" fill="#FED6A4"/>
<path d="M107.35 23.9324C107.723 23.9324 108.014 24.3999 108.014 24.9815C108.014 25.5632 107.723 26.0211 107.35 26.0211C106.976 26.0211 106.695 25.5535 106.695 24.9832C106.695 24.4128 106.986 23.9324 107.35 23.9324Z" fill="#FED6A4"/>
<path d="M113.691 22.9683C113.89 22.7272 114.083 22.0235 115.632 22.6051C116.08 22.773 116.471 22.4364 116.068 21.9094C115.865 21.669 115.605 21.4838 115.311 21.3708C115.018 21.2579 114.7 21.2209 114.389 21.2634C114.077 21.3059 113.781 21.4264 113.528 21.6138C113.276 21.8011 113.074 22.0493 112.943 22.3352C112.841 22.5762 112.79 22.851 112.995 23.0205C113.045 23.0627 113.102 23.0949 113.163 23.1151C113.225 23.1354 113.29 23.1433 113.354 23.1385C113.419 23.1336 113.482 23.1161 113.54 23.0869C113.597 23.0577 113.649 23.0174 113.691 22.9683Z" fill="#FED6A4"/>
<path d="M106.304 22.361C107.496 21.7031 107.57 22.3337 108.473 23.0262C108.549 23.099 108.648 23.1422 108.753 23.1478C108.858 23.1534 108.961 23.1211 109.044 23.0567C109.216 22.9057 109.168 22.6904 109.085 22.4863C108.552 21.1672 106.655 20.5848 105.805 21.5223C105.62 21.7248 105.491 21.9593 105.628 22.1867C105.695 22.299 105.804 22.3803 105.93 22.4129C106.057 22.4456 106.191 22.4269 106.304 22.361Z" fill="#FED6A4"/>
<path d="M121.893 23.0953C123.284 19.0882 119.822 15.3325 116.036 13.3378C115.998 12.3741 115.901 11.4137 115.745 10.4618C114.887 5.98637 111.389 3.58435 107.512 3.82777C106.286 3.88798 105.09 4.23128 104.018 4.83078C102.947 5.43027 102.029 6.26969 101.336 7.28327C100.643 8.29684 100.194 9.45706 100.025 10.673C99.8554 11.889 99.9697 13.1278 100.359 14.2922C101.33 16.7354 103.063 18.8 105.301 20.1792C105.39 20.238 105.49 20.2783 105.596 20.2979C105.701 20.3175 105.809 20.3159 105.913 20.2932C106.974 20.0522 108.112 19.7188 108.955 19.6289C111.445 19.3624 113.962 19.7377 116.266 20.719C116.435 21.7737 116.836 22.7776 117.442 23.6576C118.047 24.5377 118.841 25.2718 119.765 25.8066C119.848 25.8559 119.942 25.8835 120.038 25.8868C120.135 25.8901 120.23 25.8691 120.316 25.8255C120.402 25.782 120.476 25.7175 120.53 25.6379C120.585 25.5583 120.618 25.4663 120.627 25.3704C120.634 25.0996 120.679 24.8311 120.76 24.5727C121.762 24.4923 122.645 24.4964 123.009 25.4564C123.538 26.7489 122.582 28.6015 120.599 29.0714C120.418 29.1133 120.256 29.2169 120.143 29.3646C120.029 29.5124 119.97 29.695 119.977 29.8812C120.099 34.2747 119.957 36.4374 120.153 41.063C120.221 42.1877 120.485 43.2377 120.555 44.2716C120.555 44.3817 120.599 44.4872 120.677 44.5651C120.755 44.6429 120.86 44.6867 120.97 44.687C121.077 44.687 121.179 44.6446 121.254 44.5693C121.33 44.494 121.372 44.3918 121.372 44.2853C121.64 41.4366 121.709 35.3231 121.613 30.4556C125.881 28.82 125.585 23.223 121.893 23.0953ZM110.872 6.84274C110.712 7.27333 110.532 6.93754 108.931 7.17452C106.451 7.5288 104.914 8.73945 104.31 9.926C104.159 10.2695 104.044 10.6279 103.967 10.9953C103.676 12.3545 103.811 12.7731 103.293 12.8124C102.577 12.8679 102.489 11.115 102.525 10.539C102.742 8.14176 105.437 6.13338 107.799 5.76304C108.161 5.69049 108.531 5.6694 108.899 5.70038C109.573 5.76545 111.108 6.21452 110.872 6.84274Z" fill="#FED6A4"/>
<path d="M162.06 85.3164C162.141 85.6923 162.488 87.5489 162.663 88.2341C162.959 89.5195 163.589 91.8066 164.23 94.9726C164.881 98.1611 165.228 100.732 165.404 101.773C165.652 103.071 165.931 104.183 166.026 104.691C166.036 104.798 166.088 104.897 166.171 104.966C166.254 105.035 166.36 105.069 166.468 105.059C166.575 105.049 166.674 104.997 166.743 104.915C166.813 104.832 166.846 104.725 166.836 104.618C166.908 103.612 166.922 102.603 166.878 101.596C166.402 96.9283 165.473 92.3177 164.106 87.8292C163.784 86.8762 163.413 85.9404 162.995 85.0255C162.977 84.9632 162.947 84.9049 162.906 84.8543C162.866 84.8037 162.815 84.7617 162.758 84.7308C162.701 84.6999 162.639 84.6807 162.574 84.6743C162.51 84.668 162.444 84.6746 162.382 84.6938C162.258 84.735 162.155 84.8232 162.095 84.9395C162.035 85.0558 162.022 85.1911 162.06 85.3164Z" fill="#FED6A4"/>
<path d="M104.671 57.7277C107.456 54.9963 107.913 54.3794 110.319 52.7028C110.356 52.6609 110.402 52.6272 110.452 52.6038C110.503 52.5804 110.558 52.5678 110.614 52.5668C110.669 52.5658 110.725 52.5764 110.776 52.598C110.828 52.6196 110.874 52.6516 110.912 52.6921C110.951 52.7326 110.98 52.7807 110.999 52.8332C111.018 52.8857 111.025 52.9416 111.021 52.9973C111.017 53.0529 111.002 53.1071 110.976 53.1564C110.95 53.2057 110.914 53.249 110.87 53.2836C108.748 55.9906 106.389 58.503 103.82 60.7909C103.69 60.9074 103.526 60.9792 103.353 60.9958C103.179 61.0123 103.004 60.9728 102.854 60.8831C102.705 60.7933 102.587 60.6579 102.52 60.4968C102.453 60.3356 102.439 60.1572 102.48 59.9875C103.685 55.2823 103.358 55.2574 104.827 50.218C104.858 50.0951 104.935 49.9888 105.042 49.9213C105.15 49.8538 105.279 49.8303 105.403 49.8557C105.527 49.881 105.637 49.9533 105.709 50.0574C105.781 50.1616 105.811 50.2896 105.791 50.4148C105.613 52.8783 105.238 55.3237 104.671 57.7277Z" fill="#FED6A4"/>
<path d="M120.641 58.4982C121.418 55.1631 122.442 51.8904 123.704 48.7069C123.715 48.654 123.736 48.6038 123.766 48.5593C123.797 48.5148 123.836 48.4769 123.882 48.4479C123.927 48.4188 123.978 48.3993 124.031 48.3904C124.085 48.3815 124.139 48.3834 124.192 48.396C124.295 48.4231 124.385 48.4883 124.443 48.5787C124.501 48.6692 124.522 48.7781 124.503 48.8837C124.374 50.066 124.184 51.2407 123.932 52.4031C123.522 54.2372 122.499 57.416 121.897 60.2944C121.864 60.4372 121.793 60.5685 121.692 60.6747C121.591 60.7809 121.464 60.8582 121.323 60.8984C121.182 60.9387 121.033 60.9404 120.891 60.9036C120.749 60.8668 120.62 60.7926 120.516 60.6889C119.603 59.7546 114.245 54.3239 113.518 53.6491C113.465 53.6098 113.42 53.5602 113.387 53.5033C113.353 53.4463 113.332 53.3832 113.323 53.3177C113.314 53.2521 113.319 53.1855 113.337 53.1218C113.355 53.0582 113.385 52.9987 113.426 52.947C113.467 52.8954 113.519 52.8526 113.577 52.8211C113.635 52.7897 113.699 52.7704 113.765 52.7642C113.831 52.7581 113.897 52.7652 113.96 52.7853C114.023 52.8054 114.081 52.838 114.131 52.8811C116.533 54.467 118.72 56.3548 120.641 58.4982Z" fill="#FED6A4"/>
<path d="M103.374 105.98C103.695 104.475 103.654 102.886 103.831 101.37C104.432 96.3343 104.692 91.2676 105.357 86.2426C106.447 77.8637 108.69 69.6719 109.479 61.2416C109.458 61.2311 108.867 56.8392 108.888 56.8288C109.967 55.7386 110.829 54.4509 111.888 53.3503C113.133 54.1955 114.329 55.1106 115.47 56.0913C115.241 57.7526 114.907 59.414 114.681 61.0857C114.379 63.401 115.18 65.7371 115.283 68.0837C116.268 89.7605 116.408 81.1912 117.651 97.8294C117.953 100.362 118.105 102.91 118.107 105.461L103.374 105.98Z" fill="#FED6A4"/>
<path d="M110.395 61.8851C111.589 62.1423 112.826 62.1209 114.01 61.8224C114.23 61.7614 114.425 61.6666 114.436 61.4384C114.446 61.2103 114.266 61.0946 114.052 61.0126C112.88 60.7161 111.658 60.6772 110.47 60.8986C109.778 61.0078 109.786 61.6899 110.395 61.8851Z" fill="#FED6A4"/>
<path d="M50.2291 36.2926C48.3573 43.4376 41.4589 64.3649 46.7201 80.1178C52.3684 96.858 70.7925 100.041 82.4571 87.0636C82.5317 86.985 82.572 86.8801 82.5692 86.7719C82.5664 86.6636 82.5208 86.5609 82.4422 86.4864C82.3637 86.4118 82.2588 86.3715 82.1506 86.3742C82.0423 86.377 81.9396 86.4227 81.865 86.5012C70.6663 97.6573 53.5984 95.4859 48.2673 79.5972C44.0096 66.942 47.9637 50.3553 51.1739 36.5377C51.2081 36.4125 51.1913 36.2789 51.1272 36.1661C51.063 36.0532 50.9567 35.9705 50.8316 35.936C50.7045 35.9048 50.5702 35.9247 50.4576 35.9914C50.345 36.0581 50.263 36.1662 50.2291 36.2926Z" fill="#FED6A4"/>
<path d="M54.4617 34.4627C54.4312 34.7511 53.6503 39.6041 53.4977 41.4398C53.4854 41.4916 53.4835 41.5453 53.492 41.5978C53.5006 41.6504 53.5193 41.7007 53.5473 41.746C53.5753 41.7913 53.6119 41.8306 53.6551 41.8617C53.6982 41.8929 53.7471 41.9152 53.7989 41.9274C53.8507 41.9397 53.9044 41.9416 53.957 41.9331C54.0095 41.9246 54.0599 41.9058 54.1051 41.8778C54.1504 41.8498 54.1897 41.8132 54.2209 41.77C54.252 41.7269 54.2743 41.678 54.2866 41.6262C55.1317 39.6009 55.7406 36.0493 55.449 34.4418C55.4462 34.3109 55.3916 34.1864 55.297 34.0958C55.2025 34.0052 55.0758 33.9558 54.9449 33.9586C54.814 33.9614 54.6895 34.016 54.5989 34.1106C54.5083 34.2051 54.4589 34.3318 54.4617 34.4627Z" fill="#FED6A4"/>
<path d="M59.9841 34.2755C59.9769 34.3559 59.433 39.8331 59.2048 41.6784C59.1746 41.7817 59.1866 41.8929 59.2383 41.9873C59.29 42.0818 59.377 42.1519 59.4804 42.1821C59.5837 42.2124 59.6948 42.2003 59.7893 42.1487C59.8838 42.097 59.9538 42.0099 59.9841 41.9066C60.9436 39.4702 61.2824 36.8335 60.9698 34.2338C60.9643 34.1031 60.907 33.9799 60.8107 33.8914C60.7143 33.8029 60.5868 33.7563 60.4561 33.7618C60.3253 33.7673 60.2022 33.8246 60.1137 33.9209C60.0252 34.0173 59.9785 34.1448 59.9841 34.2755Z" fill="#FED6A4"/>
<path d="M64.3678 35.9777C64.0376 37.533 63.3451 42.1683 63.0511 45.0106C63.0395 45.0633 63.0384 45.1179 63.0479 45.171C63.0573 45.2242 63.0772 45.275 63.1063 45.3205C63.1354 45.366 63.1731 45.4053 63.2174 45.4363C63.2617 45.4672 63.3117 45.489 63.3644 45.5006C63.4172 45.5122 63.4717 45.5134 63.5249 45.5039C63.578 45.4944 63.6288 45.4746 63.6743 45.4455C63.7198 45.4164 63.7592 45.3786 63.7901 45.3343C63.821 45.29 63.8429 45.2401 63.8545 45.1873C64.7616 42.2373 65.2646 39.1778 65.3495 36.0926C65.3647 35.9624 65.3276 35.8315 65.2463 35.7287C65.1651 35.6259 65.0463 35.5596 64.9161 35.5443C64.8516 35.5368 64.7863 35.542 64.7239 35.5597C64.6614 35.5774 64.6031 35.6072 64.5522 35.6475C64.4494 35.7288 64.383 35.8476 64.3678 35.9777Z" fill="#FED6A4"/>
<path d="M87.4021 69.7675C86.8727 69.6566 86.2774 71.657 86.1666 72.041C85.4688 75.1326 84.9489 78.2617 84.6097 81.4129C78.7894 76.2056 74.9976 72.9174 68.8471 69.3482C68.7937 69.3119 68.7336 69.2869 68.6702 69.2746C68.6069 69.2622 68.5417 69.2629 68.4786 69.2765C68.4155 69.2901 68.3559 69.3163 68.3032 69.3536C68.2506 69.391 68.206 69.4386 68.1723 69.4936C68.1382 69.5481 68.1151 69.6088 68.1045 69.6722C68.0938 69.7357 68.0958 69.8006 68.1103 69.8633C68.1248 69.926 68.1515 69.9852 68.1888 70.0375C68.2262 70.0899 68.2736 70.1343 68.3282 70.1684C68.7861 70.4978 69.2384 70.8282 69.685 71.1597C69.1915 71.5583 68.636 71.8734 68.0406 72.0924C64.2375 73.4934 61.2876 67.1984 61.5093 63.1527C61.9166 55.9788 69.6714 52.918 68.7049 44.6717C68.7013 44.6074 68.6849 44.5446 68.6567 44.4867C68.6286 44.4289 68.5892 44.3772 68.541 44.3347C68.4927 44.2922 68.4364 44.2596 68.3755 44.239C68.3146 44.2184 68.2502 44.2101 68.186 44.2146C68.1212 44.2192 68.0579 44.2366 67.9999 44.2658C67.9418 44.2949 67.8901 44.3353 67.8476 44.3844C67.8052 44.4336 67.7728 44.4907 67.7524 44.5524C67.7321 44.6141 67.7241 44.6792 67.7289 44.744C67.8365 52.0111 60.3091 55.6053 59.8898 63.0603C59.6544 67.1879 62.2508 73.2709 66.2025 73.6397C67.0078 73.6789 67.8107 73.5238 68.5435 73.1876C69.2763 72.8513 69.9175 72.3437 70.4129 71.7076C75.6089 75.6617 79.1694 78.6767 84.1196 83.1577C83.6079 93.5957 82.7636 96.2371 82.5418 106.446C82.5373 106.552 82.5738 106.656 82.6437 106.735C82.7137 106.815 82.8117 106.865 82.9174 106.874C83.0231 106.884 83.1283 106.852 83.2111 106.785C83.2939 106.719 83.348 106.624 83.3621 106.518C83.6947 103.65 85.2331 94.7027 85.7601 82.846C85.8573 80.5685 88.7059 70.0398 87.4021 69.7675Z" fill="#FED6A4"/>
<path d="M38.5539 28.4601C38.529 29.9302 38.5933 34.9736 37.0485 34.9391C36.1101 34.9174 35.8434 32.3025 35.8233 32.0213C35.7472 30.4025 35.7541 28.7808 35.8442 27.1627C35.8548 26.8387 35.9793 26.5289 36.1957 26.2876C36.4121 26.0464 36.7067 25.8891 37.0276 25.8436C38.2319 25.6671 39.4547 25.6566 40.6619 25.8122C41.34 25.9255 43.5837 26.475 43.5379 27.2976C43.4986 27.9973 42.0244 28.2271 41.0877 28.3564C40.4482 28.4311 39.5613 28.4143 38.5539 28.4601Z" fill="#FED6A4"/>
<path d="M38.5539 66.183C39.1966 66.2272 40.5864 66.228 41.0877 66.2979C42.0019 66.424 43.4977 66.6513 43.5379 67.3462C43.5829 68.1906 41.2315 68.7465 40.6619 68.8413C39.454 68.9886 38.2318 68.9746 37.0276 68.7995C36.7075 68.7566 36.4131 68.6016 36.1965 68.3622C35.9798 68.1228 35.855 67.8143 35.8442 67.4916C35.7541 65.8732 35.7472 64.2513 35.8233 62.6322C35.8394 62.355 36.0788 59.749 37.0484 59.7048C38.5933 59.6694 38.5298 64.7892 38.5539 66.183Z" fill="#FED6A4"/>
<path d="M73.1733 28.4247C72.1988 28.3805 68.2544 28.4175 68.1925 27.2623C68.1451 26.3882 70.8098 25.3302 74.6997 25.8082C75.0206 25.8536 75.3153 26.0108 75.5317 26.2521C75.7482 26.4934 75.8726 26.8033 75.883 27.1273C75.9731 28.742 75.98 30.3602 75.9039 31.9755C75.8886 32.2334 75.6629 34.8813 74.6788 34.9037C73.1299 34.9383 73.1942 29.8378 73.1733 28.4247Z" fill="#FED6A4"/>
<path d="M73.1733 66.2239C73.1631 65.021 73.2151 63.8184 73.3292 62.6209C73.4312 61.7525 73.7983 59.7248 74.6788 59.7449C75.6155 59.7666 75.8838 62.3614 75.9039 62.6627C75.9801 64.2815 75.9731 65.9032 75.883 67.5213C75.8722 67.8451 75.7477 68.1548 75.5313 68.3959C75.3149 68.637 75.0204 68.7941 74.6997 68.8396C73.4956 69.0162 72.273 69.0264 71.0661 68.8702C70.5319 68.7995 68.1435 68.2154 68.1901 67.3856C68.2295 66.6521 70.5198 66.3492 70.6403 66.3412C71.2726 66.2496 72.0141 66.2761 73.1733 66.2239Z" fill="#FED6A4"/>
<path d="M144.316 33.4842C144.142 37.2519 144.543 37.3965 143.995 41.0534C143.996 41.1603 143.955 41.2633 143.882 41.3408C143.808 41.4183 143.707 41.4641 143.6 41.4687C143.494 41.4677 143.393 41.425 143.318 41.3499C143.243 41.2748 143.2 41.1733 143.199 41.067C142.667 38.3463 142.51 35.5655 142.732 32.8022C142.745 32.6186 142.82 32.4448 142.944 32.3092C143.069 32.1735 143.236 32.084 143.417 32.0551C144.456 31.8864 145.545 31.0911 145.545 30.4347C145.532 30.2616 145.481 30.0936 145.394 29.9428C145.308 29.7921 145.19 29.6624 145.047 29.5631C144.754 29.2607 144.365 29.0698 143.947 29.0232C143.717 28.9783 143.485 28.9538 143.251 28.9501C143.122 28.9598 142.994 28.9177 142.895 28.833C142.797 28.7484 142.736 28.6281 142.726 28.4986C142.717 28.3692 142.759 28.2412 142.844 28.1428C142.928 28.0445 143.048 27.9837 143.178 27.9741C143.655 27.8281 144.159 27.7925 144.652 27.8699C145.145 27.9472 145.614 28.1356 146.023 28.4207C148.172 30.1945 146.879 32.6608 144.316 33.4842Z" fill="#FED6A4"/>
<path d="M136.691 33.1147C137.559 35.1648 139.429 34.9158 140.585 32.9484C140.897 32.4181 140.482 32.1097 140.035 32.3571C138.144 33.4014 138.945 33.8835 137.481 32.5435C136.992 32.0968 136.436 32.5105 136.691 33.1147Z" fill="#FED6A4"/>
<path d="M137.349 30.4877C137.685 30.4877 138.949 30.7512 138.969 31.1625C139.005 31.5642 138.01 31.908 137.858 31.9514C137.662 32.0071 137.459 32.0318 137.255 32.0245C137.073 32.0417 136.889 32.0228 136.715 31.9689C136.54 31.915 136.378 31.8272 136.237 31.7105C136.096 31.5938 135.98 31.4505 135.894 31.2888C135.809 31.1271 135.756 30.9502 135.739 30.7681C135.841 29.8499 136.065 28.9492 136.404 28.0897C136.607 27.5828 137.127 26.5706 137.66 26.7192C138.13 26.8759 137.973 28.1186 137.94 28.2865C137.89 28.5267 137.442 30.1246 137.349 30.4877Z" fill="#FED6A4"/>
<path d="M138.342 21.8316C139.358 20.7133 141.204 20.6266 142.589 21.1086C143.34 21.4536 144.144 21.6708 144.967 21.7513C145.804 21.7513 147.239 21.0596 146.835 20.4531C146.514 20.0329 146.273 20.6756 145.008 20.2876C144.369 20.0911 143.742 19.8588 143.128 19.5919C141.004 18.8689 138.606 19.1581 137.19 20.8579C136.767 21.5175 136.003 23.0647 136.733 23.309C137.315 23.5154 137.254 22.8607 138.342 21.8316Z" fill="#FED6A4"/>
<path d="M143.535 23.967C144.676 23.8738 145.204 24.449 146.442 24.8282C147.037 25.0762 147.695 25.1271 148.321 24.9736C148.422 24.9408 148.519 24.8992 148.612 24.849C149.137 24.4996 149.774 23.6713 149.255 23.354C148.788 23.0841 148.957 23.6352 148.071 23.595C148.015 23.5907 147.959 23.5802 147.905 23.5637C146.271 23.403 145.042 21.9048 142.89 22.4944C142.588 22.5618 142.297 22.6739 142.029 22.827C141.514 23.1483 140.558 23.9139 140.959 24.4152C141.326 24.8699 142.289 24.0931 143.535 23.967Z" fill="#FED6A4"/>
<path d="M143.586 27.1273C145.365 26.4951 146.151 28.3388 147.511 28.0303C148.067 27.9042 148.064 27.3354 147.532 27.2205C147.061 27.1185 144.955 24.6417 143.099 26.2758C142.592 26.7216 142.985 27.3418 143.586 27.1273Z" fill="#FED6A4"/>
<path d="M171.738 72.5223C171.619 61.8016 167.854 48.2909 157.784 44.115C154.632 42.9092 151.258 42.3923 147.889 42.5991L146.633 40.9377C146.525 40.7971 146.374 40.697 146.202 40.6532C146.031 40.6095 145.85 40.6248 145.688 40.6968C142.705 42.0698 139.81 43.6258 137.019 45.3561C136.415 43.9278 136.097 42.8448 135.493 41.1602C135.634 41.345 135.653 41.3089 137.144 41.4013C137.221 41.4014 137.296 41.386 137.367 41.3559C137.437 41.3258 137.5 41.2817 137.553 41.2262C137.605 41.1708 137.646 41.1053 137.673 41.0336C137.699 40.9619 137.711 40.8856 137.707 40.8093C137.754 39.6773 137.84 38.9744 137.82 37.8794C138.193 37.9011 138.566 37.9011 138.939 37.8794C141.004 37.6625 140.792 36.2912 139.064 36.2912C137.978 36.2109 136.314 36.3579 136.098 36.243C135.095 35.7096 135.232 33.2819 135.267 32.1515C135.268 32.0404 135.246 31.9302 135.203 31.8279C135.159 31.7257 135.095 31.6336 135.014 31.5575C134.933 31.4814 134.837 31.4229 134.732 31.3858C134.627 31.3486 134.516 31.3337 134.405 31.3418C133.798 31.3779 132.828 31.1699 132.619 30.6051C132.327 29.8323 133.617 29.1382 134.363 29.245C134.469 29.2602 134.577 29.2525 134.679 29.2224C134.782 29.1923 134.876 29.1406 134.957 29.0707C135.038 29.0007 135.103 28.9142 135.147 28.8171C135.192 28.7199 135.215 28.6144 135.215 28.5076C135.161 27.8239 135.134 26.7876 134.903 25.3199C134.897 25.2403 134.872 25.1634 134.83 25.0956C134.788 25.0278 134.73 24.971 134.662 24.9302C134.132 24.2289 133.861 23.3659 133.894 22.4874C133.928 21.6089 134.264 20.769 134.846 20.1101C135.696 19.1783 136.853 18.5847 138.106 18.4384C139.494 18.2536 141.282 19.2007 143.1 18.4801C143.194 18.4476 143.271 18.3819 143.319 18.2955C143.367 18.2092 143.381 18.1082 143.36 18.012C143.338 17.9157 143.281 17.8309 143.201 17.7736C143.12 17.7164 143.022 17.6908 142.924 17.7017C141.678 17.7419 140.006 16.6164 137.92 16.8397C134.722 17.1819 132.025 19.7888 132.376 22.8512C132.436 23.3886 132.603 23.9086 132.867 24.3807C133.131 24.8528 133.486 25.2674 133.912 25.6002L133.781 27.7693C132.963 27.8631 132.199 28.2289 131.612 28.808C130.24 30.2773 131.135 32.5677 133.637 32.9051C133.579 33.9606 133.706 35.018 134.01 36.0301C134.153 36.5337 134.449 36.9806 134.856 37.3097C135.263 37.6388 135.762 37.8339 136.284 37.8682C136.311 38.7093 136.387 39.5481 136.513 40.3803L135.786 40.5048C135.681 40.512 135.582 40.5604 135.512 40.6395C135.443 40.7186 135.407 40.822 135.412 40.9273C135.383 40.847 135.399 40.8422 135.368 40.7602C135.319 40.6408 135.226 40.5449 135.108 40.4927C134.99 40.4404 134.856 40.4358 134.735 40.4799C133.566 40.6639 132.438 41.0505 131.402 41.6222C128.811 42.9478 125.63 41.9002 123.595 44.3215C123.514 44.3912 123.463 44.4899 123.454 44.5965C123.444 44.7031 123.477 44.8091 123.545 44.8919C123.613 44.9747 123.71 45.0277 123.816 45.0396C123.923 45.0514 124.03 45.0212 124.114 44.9553C124.669 44.7184 125.251 44.5508 125.848 44.4565C127.941 43.9913 129.178 44.0604 130.796 43.5728C130.767 44.1873 130.811 46.0383 131.425 46.0383C131.643 46.0383 131.747 45.8471 131.827 45.6366C132.076 44.8075 132.154 43.9364 132.055 43.0763C133.025 42.5814 133.76 42.2095 134.612 41.6857C135.025 43.3354 135.535 44.9593 136.139 46.5492C136.175 46.6344 136.229 46.7109 136.297 46.7736C136.365 46.8364 136.445 46.8838 136.533 46.913C136.991 47.0472 136.702 46.93 141.662 44.4002C143.022 43.7045 144.394 43.0297 145.774 42.3862C148.047 45.41 146.112 43.5278 152.481 44.3689C158.096 45.1248 162.518 47.8104 165.885 54.1079C168.782 59.5394 169.878 65.9461 170.37 72.0909C168.113 72.9626 165.804 73.6909 163.456 74.2712C163.356 74.2954 163.269 74.3569 163.214 74.4429C163.158 74.5289 163.137 74.633 163.155 74.7339C163.174 74.8348 163.23 74.9248 163.313 74.9854C163.396 75.0461 163.498 75.0728 163.6 75.0601C165.207 74.7845 166.667 74.4977 168.204 74.0864C168.555 77.0974 169.175 82.3143 169.776 85.3558C169.857 85.7695 170.351 88.1209 170.887 88.0446C171.53 87.9571 171.316 85.5197 171.261 84.8674C171.145 83.7596 170.118 76.7784 169.519 73.7129C170.119 73.5353 170.711 73.3522 171.294 73.1706C171.428 73.1244 171.543 73.0365 171.623 72.9197C171.703 72.803 171.743 72.6637 171.738 72.5223Z" fill="#FED6A4"/>
<path d="M162.506 82.205C161.63 78.7218 160.491 75.3099 159.1 71.9984C157.397 67.7825 155.664 63.5054 153.099 59.7474C150.917 56.5051 148.216 53.6451 145.103 51.2825C145.475 50.6699 145.771 50.0147 145.987 49.3311C146.388 48.3205 147.923 44.8878 146.994 44.5239C146.043 44.1824 144.916 47.6176 144.481 48.7495C144.251 49.2987 144.063 49.8649 143.919 50.443C140.287 47.9249 136.002 46.5151 131.584 46.3844C129.025 46.2302 126.273 45.8839 123.767 46.6439C123.275 46.1319 122.74 45.6631 122.167 45.2429C122.037 45.1518 121.884 45.1003 121.726 45.0948C121.567 45.0892 121.411 45.1298 121.275 45.2115C119.281 46.4262 113.01 50.2887 111.888 51.0254C110.474 49.5217 109.21 47.8839 108.113 46.1354C108.05 46.0443 107.97 45.967 107.877 45.9082C107.783 45.8495 107.679 45.8106 107.57 45.7941C107.461 45.7775 107.349 45.7835 107.243 45.8119C107.136 45.8402 107.037 45.8901 106.95 45.9587C106.314 46.4824 105.877 46.7459 105.216 47.2151C96.2503 45.7634 83.8579 50.7056 77.4471 56.7669C77.3994 56.8112 77.3609 56.8645 77.3337 56.9237C77.3066 56.9829 77.2913 57.0469 77.2889 57.112C77.2865 57.1771 77.2969 57.242 77.3196 57.303C77.3422 57.3641 77.3767 57.4201 77.421 57.4678C77.4653 57.5156 77.5186 57.5541 77.5778 57.5813C77.637 57.6084 77.701 57.6236 77.7661 57.6261C77.8312 57.6285 77.8961 57.6181 77.9572 57.5954C78.0182 57.5727 78.0742 57.5383 78.122 57.494C84.4917 51.7468 97.0007 47.2713 105.252 48.8041C105.356 48.8234 105.463 48.8214 105.567 48.7982C105.67 48.775 105.768 48.7311 105.854 48.6692C106.311 48.3478 106.789 48.0265 107.255 47.7051C108.399 49.4847 109.736 51.1317 111.242 52.616C111.371 52.7434 111.539 52.8224 111.719 52.8394C111.899 52.8564 112.079 52.8104 112.229 52.7092C115.318 50.6671 120.04 47.8538 121.635 46.8745C122.103 47.2669 122.546 47.6864 122.964 48.1309C123.072 48.2462 123.211 48.3267 123.365 48.3618C123.519 48.3968 123.679 48.385 123.826 48.3277C126.129 47.481 129.048 47.8529 131.478 48.0064C134.063 48.1108 136.611 48.6513 139.016 49.6051C144.091 51.7741 148.645 56.0785 151.755 60.6624C154.274 64.3497 156.028 68.7658 157.611 72.6026C158.89 75.6628 159.962 78.8053 160.82 82.009C156.27 84.7789 150.115 86.6041 144.863 87.6099C144.805 86.7246 144.693 85.8438 144.525 84.9725C144.255 83.3658 143.446 77.9328 143.248 76.8531C143.175 76.4008 142.652 73.5593 142.012 73.6445C141.02 73.7867 142.155 80.4465 142.314 81.4627C146.875 110.599 144.326 93.995 146.232 105.713C146.248 105.819 146.304 105.915 146.39 105.98C146.476 106.045 146.585 106.072 146.691 106.057C146.798 106.042 146.894 105.985 146.958 105.899C147.023 105.813 147.051 105.705 147.036 105.599C146.22 99.1019 145.539 95.3028 145.021 88.9965C150.909 88.0004 157.078 86.2418 162.152 83.0574C162.292 82.9688 162.4 82.8395 162.464 82.687C162.527 82.5345 162.542 82.3662 162.506 82.205Z" fill="#FED6A4"/>
<path d="M158.197 40.4195C157.741 41.2788 157.577 42.2628 157.73 43.2232C157.778 43.4377 157.845 43.6442 158.062 43.6803C158.279 43.7165 158.407 43.5454 158.529 43.3478C158.962 42.5157 159.173 41.5859 159.141 40.6485C159.132 40.3818 159.047 40.1327 158.789 40.0669C158.53 40.001 158.328 40.1874 158.197 40.4195Z" fill="#FED6A4"/>
<path d="M150.876 33.9502C151.699 35.0219 153.674 34.8202 154.009 33.4312C154.063 33.2135 154.089 32.999 153.905 32.8689C153.284 32.4375 152.853 34.3013 151.434 33.1493C151.382 33.111 151.322 33.0839 151.258 33.0694C151.195 33.055 151.129 33.0535 151.065 33.0652C151.001 33.0768 150.94 33.1013 150.886 33.1371C150.831 33.173 150.785 33.2195 150.749 33.2738C150.603 33.4923 150.713 33.7381 150.876 33.9502Z" fill="#FED6A4"/>
<path d="M178.633 63.0242C178.308 61.4108 177.896 59.8163 177.398 58.2475C175.208 51.1876 171.365 43.367 164.814 39.8917C163.144 38.8445 161.22 38.2736 159.249 38.2409C158.767 37.8007 158.226 37.4302 157.642 37.1403C157.499 37.0613 157.333 37.0357 157.174 37.0679C157.014 37.1001 156.871 37.1882 156.77 37.3162L156.062 38.3316C156.027 38.3067 155.992 38.2875 155.964 38.2698C156.016 37.4898 155.938 36.7067 155.734 35.9521C156.363 34.7833 156.72 33.4878 156.778 32.1619C157.448 31.9532 158.012 31.4962 158.356 30.8846C159.075 29.5117 158.644 27.4904 157.082 27.1932C157.586 26.284 157.738 25.2212 157.51 24.2071C157.281 23.1929 156.688 22.298 155.843 21.6926C154.886 21.1375 153.807 20.8246 152.701 20.7812C151.595 20.7378 150.495 20.9652 149.497 21.4436C149.393 21.4944 149.302 21.5674 149.23 21.6573C149.158 21.7473 149.107 21.852 149.081 21.9641C149.054 22.0761 149.052 22.1927 149.075 22.3055C149.099 22.4183 149.147 22.5245 149.216 22.6165C150.261 23.9107 150.045 23.7179 149.642 24.7767C149.455 25.2482 149.299 25.7312 149.175 26.2227C149.054 26.2427 148.946 26.3068 148.871 26.4025C148.795 26.4982 148.758 26.6186 148.767 26.7401C148.29 28.5399 148.044 30.3931 148.035 32.2551C148.054 33.8032 148.317 35.5207 149.434 36.602C149.166 37.3581 149.074 38.1653 149.165 38.9623C148.963 39.0056 148.764 39.0644 148.571 39.1382C148.558 38.6337 148.622 38.3461 148.305 38.0489C148.225 37.9732 148.13 37.9155 148.026 37.8796C147.922 37.8437 147.811 37.8305 147.702 37.8408C147.127 37.8765 146.569 38.0474 146.072 38.3397C145.728 38.5686 144.882 39.3647 145.241 39.8138C145.519 40.2018 146.132 39.8797 146.976 39.6266C146.976 42.17 148.395 43.0497 148.582 40.5465C149.099 40.6069 149.623 40.5587 150.12 40.4051C150.311 40.3753 150.484 40.2762 150.607 40.1269C150.729 39.9775 150.793 39.7883 150.784 39.5953C150.755 38.8506 150.804 38.1155 150.776 37.3805C151.203 37.4865 151.647 37.5065 152.082 37.4394C152.517 37.3722 152.935 37.2192 153.31 36.9892C153.362 36.973 153.411 36.9464 153.453 36.911C153.494 36.8756 153.529 36.8321 153.553 36.7832C153.578 36.7343 153.592 36.6809 153.596 36.6263C153.599 36.5717 153.592 36.5169 153.573 36.4653C153.555 36.4136 153.527 36.3662 153.49 36.3257C153.453 36.2853 153.409 36.2527 153.359 36.23C153.309 36.2072 153.255 36.1947 153.2 36.1932C153.146 36.1917 153.091 36.2012 153.04 36.2212C152.356 36.3057 151.663 36.1752 151.057 35.8477C149.96 35.2387 149.746 34.0088 149.665 32.6793C149.816 32.7586 149.989 32.7867 150.158 32.7596C150.417 32.6873 150.698 32.6664 150.968 32.5724C151.128 32.5154 152.165 32.0751 152.12 31.6887C152.083 31.3626 151.857 31.361 151.217 31.2003C151.163 31.1821 151.107 31.1684 151.051 31.1593C151.258 30.4363 152.117 28.0857 151.466 27.7748C150.927 27.5274 150.327 28.4978 150.075 29.0409C149.614 30.062 149.659 30.6942 149.827 28.6296V27.1353C151.098 26.9978 152.322 26.5784 153.411 25.9078C153.586 26.347 153.828 26.7567 154.127 27.1225C154.631 27.7182 155.317 28.1317 156.079 28.2994C156.642 28.3364 156.647 28.3942 156.785 28.4858C156.968 28.7162 157.08 28.9949 157.108 29.288C157.136 29.5812 157.078 29.876 156.941 30.1367C156.754 30.4893 156.16 30.6749 155.799 30.7793C155.638 30.8239 155.494 30.9174 155.388 31.0468C155.282 31.1763 155.219 31.3354 155.207 31.5024C155.087 33.3131 154.765 34.0731 154.645 35.9561C154.186 36.8133 154.372 37.6528 154.372 38.8482C154.371 38.951 154.39 39.053 154.428 39.1484C154.467 39.2438 154.524 39.3307 154.596 39.404C154.668 39.4773 154.754 39.5357 154.848 39.5757C154.943 39.6157 155.045 39.6366 155.147 39.6371L154.191 41.0092C154.111 41.1101 154.074 41.2386 154.088 41.3668C154.101 41.495 154.165 41.6127 154.265 41.6945C154.314 41.7354 154.371 41.766 154.433 41.7845C154.494 41.8031 154.559 41.8092 154.622 41.8024C154.686 41.7957 154.748 41.7763 154.804 41.7453C154.861 41.7144 154.91 41.6725 154.95 41.6222L157.44 38.6216C158.385 39.2836 158.324 39.666 158.852 39.7013C160.702 39.7518 162.505 40.2966 164.073 41.2791C171.265 45.1248 175.079 55.0614 177.146 62.9479C175.771 64.0434 174.332 65.0559 172.836 65.9797C172.754 66.0384 172.696 66.1264 172.675 66.2258C172.655 66.3253 172.672 66.4288 172.725 66.5157C172.778 66.6025 172.861 66.6662 172.959 66.6939C173.057 66.7216 173.161 66.7113 173.252 66.665C175.055 65.8421 176.779 64.8549 178.401 63.7159C178.501 63.6339 178.575 63.5256 178.616 63.4033C178.657 63.281 178.663 63.1497 178.633 63.0242Z" fill="#FED6A4"/>
</g>
</g>
<defs>
<clipPath id="clip0_157716_2993">
<rect width="171" height="105" fill="white"/>
</clipPath>
</defs>
</svg>
