<svg width="171" height="105" viewBox="0 0 171 105" fill="none" xmlns="http://www.w3.org/2000/svg">
<g clip-path="url(#clip0_157691_2780)">
<g clip-path="url(#clip1_157691_2780)">
<path d="M76.0549 44.2826C76.7155 41.4739 76.7075 41.4684 77.3777 41.7264C95.4397 48.6879 96.4842 46.4979 94.0996 51.0812C93.9173 51.4323 93.7241 51.497 93.3019 51.3367C76.8206 45.0949 75.6669 45.9315 76.0549 44.2826ZM77.2383 42.4483C76.5739 45.0322 76.4992 44.5864 77.5166 44.9531L93.1192 50.5058C93.7449 50.7316 93.6474 50.4361 94.255 48.6913C94.4993 47.9901 93.8722 48.4657 85.7197 45.4462C82.9287 44.4127 80.0707 43.5659 77.2383 42.4483Z" fill="#303F31"/>
<path d="M62.6992 88.7168C61.8783 88.3068 62.5069 88.0102 62.9469 85.6382C63.1236 84.6864 63.5853 85.016 66.6694 85.8745C72.2261 87.4214 75.1038 89.1273 78.5131 90.2627C79.6793 90.6512 78.9621 92.3707 78.5487 93.5077C78.3923 93.9377 78.2562 93.8601 74.626 92.5239C72.4333 91.7171 64.5928 89.4826 62.6992 88.7168ZM63.0729 88.0244L77.9938 92.8589C78.6066 90.8287 78.7272 91.1645 76.9037 90.5134C76.8868 90.5074 66.5669 86.1661 63.6428 85.7681C63.559 86.5527 63.3577 87.2677 63.0729 88.0244Z" fill="#303F31"/>
<path d="M98.391 76.7972C97.3115 78.8308 93.3233 75.4558 83.3019 72.5289C82.3422 72.2485 82.7332 72.0132 83.7938 69.0402C84.0136 68.425 84.8126 68.6108 85.4998 68.8536C87.8002 69.6669 90.1707 70.2832 92.4154 71.249C94.1391 71.9909 95.8339 72.8024 97.6131 73.4113C99.8359 74.1724 99.5031 73.9552 98.391 76.7972ZM83.4922 71.8586C91.721 74.1356 97.281 77.6545 97.7217 76.4414C98.778 73.5337 99.1029 75.058 94.5104 72.9835C89.7224 70.8203 89.8723 71.1582 86.8874 70.0879C84.4521 69.2144 84.3469 69.1861 84.2083 69.6831C84.0093 70.3974 83.7486 71.0948 83.4922 71.8586Z" fill="#303F31"/>
<path d="M73.2991 54.5539C72.7281 54.2864 73.0208 53.6558 73.5784 53.858C92.4101 60.7074 92.103 60.2769 92.4907 60.4794C92.8107 60.6465 92.7346 61.1898 92.2837 61.1641C90.2984 61.0504 75.4066 55.4071 73.2991 54.5539Z" fill="#303F31"/>
<path d="M66.6666 76.9787C66.4024 76.8484 66.1196 76.7436 66.2011 76.4595C66.3141 76.0646 66.7722 76.2271 67.2106 76.4013C79.8577 81.4193 83.964 81.4423 83.5599 82.4298C83.4659 82.6584 83.2422 82.6925 83.0365 82.6406C80.5887 82.0297 66.5915 77.1747 66.6666 76.9787Z" fill="#303F31"/>
<path d="M75.3703 48.6204C75.0927 48.449 74.8237 48.3558 74.9709 48.0559C75.3221 47.3431 80.2484 49.6975 84.1338 51.0094C87.6124 52.1838 91.0064 53.2268 91.3482 53.631C92.6296 55.1454 84.6155 52.14 75.3703 48.6204Z" fill="#303F31"/>
<path d="M71.8432 58.9075C72.0065 58.538 72.3628 58.676 72.6492 58.8098C75.6417 60.2091 78.8499 60.9779 81.9794 61.973C83.4502 62.4413 84.8512 63.0916 86.3113 63.5848C86.5854 63.6772 86.9791 63.8275 86.8281 64.2209C86.6772 64.6139 86.2973 64.4381 86.0222 64.3378C77.7942 61.3461 71.4543 59.7868 71.8432 58.9075Z" fill="#303F31"/>
<path d="M98.2469 109.246C97.4636 109.621 97.8479 109.598 88.6581 106.223C85.7711 105.163 85.71 105.073 85.5617 104.899C85.2412 104.524 85.4963 104.262 85.8364 104.364C86.4446 104.545 96.389 108.191 96.9615 108.403C97.4192 108.573 97.9399 108.695 98.2469 109.246Z" fill="#303F31"/>
<path d="M79.7134 76.4827C79.2276 77.2068 70.9119 73.7211 67.9963 72.9756C67.4281 72.8303 67.547 72.2886 68.1334 72.3108C68.843 72.3383 68.3789 72.2215 78.9648 75.7564C79.4913 75.9323 79.912 76.1131 79.7134 76.4827Z" fill="#303F31"/>
<path d="M100.77 68.4139C100.637 68.3278 101.291 68.6867 100.808 68.8636C99.8879 69.2014 89.4433 65.237 89.154 65.0616C88.9765 64.9545 88.9706 64.5903 89.274 64.5372C89.7189 64.4592 100.363 68.2171 100.77 68.4139Z" fill="#303F31"/>
<path d="M91.7759 89.8181C91.6123 90.1948 91.2521 90.0361 90.9638 89.9299C80.6131 86.1208 80.6513 86.1012 80.7574 85.7617C80.9368 85.189 81.4505 85.5589 90.5687 88.866C91.0189 89.0295 91.9668 89.3782 91.7759 89.8181Z" fill="#303F31"/>
<path d="M82.9865 54.2996C82.6428 54.1011 82.2529 53.9474 82.4523 53.6164C82.6593 53.274 82.8322 53.5528 86.1242 54.6585C93.3246 57.0763 93.1981 56.9226 93.6171 57.2285C93.9629 57.481 93.9367 57.8462 93.408 57.8221C92.6406 57.7871 85.14 55.1775 82.9865 54.2996Z" fill="#303F31"/>
<path d="M87.3724 100.102C87.4866 99.8477 87.7273 99.9385 87.9139 99.9961C98.192 103.15 97.5437 102.996 98.3852 103.379C98.8045 103.57 98.794 104.297 97.6463 103.912C89.6428 101.227 87.0552 100.81 87.3724 100.102Z" fill="#303F31"/>
<path d="M61.359 92.6145C61.5211 92.324 61.743 92.4651 62.0253 92.5994C64.7145 93.8718 64.6911 93.5012 71.6211 96.3761C72.6335 96.7964 72.3328 97.4697 71.2881 97.0604C63.3036 93.9329 61.0064 93.2476 61.359 92.6145Z" fill="#303F31"/>
<path d="M59.6947 97.7692C59.8481 97.4617 60.1413 97.6384 60.3794 97.7128C70.4997 100.91 70.5876 100.784 70.4676 101.284C70.3807 101.647 69.8716 101.535 69.5168 101.421C59.7593 98.2518 59.4436 98.2699 59.6947 97.7692Z" fill="#303F31"/>
<path d="M68.5919 105.19C68.1015 105.798 67.6948 105.474 65.0265 104.633C59.5436 102.906 60.4648 103.262 58.7595 102.532C57.904 102.166 58.1569 101.598 58.8321 101.874C61.7537 103.07 66.6299 104.057 68.5919 105.19Z" fill="#303F31"/>
<path d="M117.826 74.2514L105.708 113.832C105.898 114.259 106.097 114.689 106.306 115.123C108.403 108.296 112.047 96.0697 118.657 74.2646C118.377 74.2633 118.1 74.2581 117.826 74.2514Z" fill="#303F31"/>
<path d="M103.042 122.538C86.2121 117.378 69.5049 112.413 52.6435 107.324C53.8178 103.705 59.4458 85.7753 64.8392 68.577C64.5689 68.4924 64.2921 68.4095 64.009 68.3296C58.1024 87.1156 51.8913 106.887 51.7427 107.252C51.2782 108.394 48.8584 107.005 102.896 123.581C103.38 123.729 103.574 123.79 105.162 118.799C104.955 118.417 104.75 118.026 104.546 117.628L103.042 122.538Z" fill="#303F31"/>
<path d="M74.5417 34.9676C74.076 36.3333 69.6326 50.4466 64.7898 65.8462C65.0664 65.9215 65.3435 66.0007 65.6211 66.0822L74.9354 36.3823C75.4168 34.8513 75.0172 34.9843 79.3476 36.3351C79.4666 36.3844 79.6218 36.4433 79.8064 36.5109C79.7428 36.221 79.6819 35.928 79.6226 35.6321L79.0554 35.453C74.6348 34.3164 74.9218 33.8513 74.5417 34.9676Z" fill="#303F31"/>
<path d="M114.684 100.15C115.583 97.2415 118.127 91.2879 120.274 83.9035C121.34 80.2388 122.327 76.9566 123.23 74.0149C122.905 74.0515 122.581 74.0846 122.261 74.1129C117.422 89.4294 111.031 108.061 107.805 117.943C108.068 118.393 108.344 118.843 108.632 119.291C109.989 115.093 111.952 108.971 114.684 100.15Z" fill="#303F31"/>
<path d="M107.548 122.64C107.266 122.259 106.981 121.845 106.694 121.402C106.39 122.373 106.152 123.163 105.992 123.742C104.347 128.513 104.97 129.187 102.326 128.525C94.3139 126.518 87.6407 123.959 66.3053 117.269C48.3643 111.643 47.5926 111.399 49.3098 104.957C49.42 104.543 55.2244 85.7426 61.0332 67.6496C60.7248 67.5958 60.4135 67.5469 60.1348 67.5075C55.9106 80.7335 48.0183 105.648 47.6904 107.622C46.7892 113.06 51.9165 113.942 67.361 118.886C82.6483 123.78 101.374 129.924 103.758 129.884C105.088 129.86 105.83 128.515 106.136 127.22C106.303 126.513 106.747 125.12 107.548 122.64Z" fill="#303F31"/>
<path d="M81.7308 33.322C81.782 33.6494 81.8387 33.9882 81.901 34.3414C84.3632 35.0431 87.3932 35.9085 90.7633 37.1567C92.0259 37.624 91.7737 37.0053 91.1082 39.3566C90.5738 39.127 85.6997 37.5643 82.3167 36.4877C82.3795 36.7855 82.446 37.0929 82.5166 37.4092C85.8562 38.4645 90.4842 39.8173 90.9629 39.8831C90.1321 43.0027 89.9821 43.1387 93.5373 44.3861C95.4757 45.0665 107.305 48.51 107.324 48.5155C108.362 48.8035 108.579 48.5638 109.479 45.9743C110.348 46.2291 112.479 46.7435 124.364 50.4003C124.895 50.5639 124.792 51.3805 118.687 71.4291C118.957 71.442 119.231 71.4527 119.507 71.4603C126.001 50.0641 126.364 50.2108 125.265 49.8655L109.804 45.0263C109.977 44.5213 110.171 43.9492 110.395 43.3029C112.805 44.3661 128.332 48.2655 128.526 50.1602C128.753 52.3718 126.394 60.8678 123.117 71.3829C123.432 71.359 123.749 71.3305 124.069 71.2965C129.571 53.5821 131.379 49.6714 127.473 48.0977C125.118 47.1495 113.079 42.8403 110.694 42.4484C111.114 41.2121 111.242 39.7269 109.974 39.4103C109.504 39.2933 108.685 38.9313 104.926 37.7454C103.906 37.4236 106.537 33.9835 105.095 33.3607C102.938 32.4297 101.722 32.108 101.207 33.345C100.093 36.02 100.802 36.334 99.9134 36.0369C98.1841 35.4588 96.4133 35.0329 94.6464 34.586C93.2754 34.2388 92.8868 34.6082 92.0357 36.6399C90.4297 35.9334 85.741 34.4963 81.7308 33.322ZM102.576 33.3668C104.99 34.1109 105.069 33.4646 103.716 37.3226C101.375 36.5444 101.112 36.6142 101.241 36.0745C101.782 33.8054 101.919 33.1636 102.576 33.3668ZM109.567 39.924C111.012 40.3613 109.627 42.736 108.474 46.583C108.103 47.8215 107.845 47.9522 106.645 47.5735C102.223 46.1794 96.3083 44.8422 92.0791 43.0702C90.9742 42.6076 90.6793 42.8743 93.0626 36.0278C94.1174 34.0496 93.8538 35.1683 109.567 39.924Z" fill="#303F31"/>
<path d="M60.9427 64.9833C61.239 65.0357 61.5369 65.0917 61.8374 65.1511C66.1666 51.7161 70.352 39.1662 72.0224 35.46C73.6829 31.7741 73.4335 32.0503 77.7985 33.089C78.231 33.246 78.7164 33.4047 79.2503 33.5692C79.195 33.2312 79.1422 32.8936 79.0921 32.5595C76.8664 31.9238 75.271 31.4897 75.2792 31.5158C71.5925 31.2528 71.7375 32.3642 62.7115 59.4935C62.5491 59.9805 61.8942 62.0114 60.9427 64.9833Z" fill="#303F31"/>
<path d="M71.7204 83.3549C71.5559 83.2414 71.3513 83.1251 71.4544 82.8757C71.569 82.5986 71.7914 82.6278 72.0371 82.7149C78.3708 84.958 78.4703 84.8355 78.7717 85.414C79.3131 86.451 74.4851 84.4613 71.7204 83.3549Z" fill="#303F31"/>
<path d="M74.6268 51.4303C74.3227 51.2548 73.9748 51.1328 74.1025 50.828C74.2406 50.5005 74.5499 50.5882 74.9109 50.7196C80.8493 52.8699 81.0553 52.7894 80.9045 53.2756C80.7228 53.8618 78.0937 52.7455 74.6268 51.4303Z" fill="#303F31"/>
<path d="M64.9418 80.8141C64.8187 80.743 64.5722 80.6703 64.6619 80.4039C64.8416 79.8694 65.5818 80.2504 68.8112 81.601C69.0773 81.712 69.493 81.8323 69.3476 82.2159C69.0955 82.8792 65.5712 81.1153 64.9418 80.8141Z" fill="#303F31"/>
<path d="M105.824 93.527C105.598 93.3821 105.369 93.3078 105.432 93.0409C105.503 92.7389 105.752 92.7247 105.982 92.7864C107.237 93.1237 109.143 93.5826 108.901 94.1832C108.724 94.6217 108.225 94.3625 105.824 93.527Z" fill="#303F31"/>
<path d="M107.357 90.027C106.76 89.6864 107.064 89.2057 107.542 89.3046C110.176 89.8497 109.854 89.7554 110.16 89.9192C110.79 90.255 110.676 91.2182 107.357 90.027Z" fill="#303F31"/>
<path d="M83.0707 77.5473C82.8655 77.4817 82.6367 77.4377 82.6791 77.1747C82.774 76.5829 83.8039 77.0244 86.6742 77.9831C87.8969 78.3912 87.0775 78.8254 83.0707 77.5473Z" fill="#303F31"/>
<path d="M108.903 86.6409C108.68 86.4702 108.428 86.3266 108.534 86.0717C108.698 85.6798 108.933 85.8336 111.443 86.7786C111.978 86.9802 112.533 88.2053 108.903 86.6409Z" fill="#303F31"/>
<path d="M118.819 63.1536C118.141 63.082 115.57 62.5822 115.752 61.9103C115.952 61.1686 118.458 62.3754 118.764 62.8696C118.789 62.9089 118.786 62.9685 118.819 63.1536Z" fill="#303F31"/>
<path d="M118.471 64.6301C119.05 65.0279 118.75 65.3123 118.313 65.2713C117.46 65.1909 116.665 64.8877 115.857 64.6412C115.489 64.5288 115.497 63.862 116.241 63.9927C117.029 64.1314 117.769 64.4342 118.471 64.6301Z" fill="#303F31"/>
<path d="M114.702 67.3703C114.538 67.259 114.341 67.14 114.432 66.8946C114.533 66.6224 114.762 66.712 114.957 66.7698C117.479 67.5219 117.352 67.4971 117.585 67.6352C117.805 67.7661 118.398 68.8277 114.702 67.3703Z" fill="#303F31"/>
<path d="M75.8114 103.146C75.5276 102.982 75.2101 102.833 75.3704 102.53C75.5149 102.257 75.6829 102.331 77.9625 103.112C78.7034 103.367 78.5758 104.431 75.8114 103.146Z" fill="#303F31"/>
<path d="M80.6143 99.4485C80.1908 100.107 79.0491 99.4345 77.9089 98.8838C77.4671 98.6704 77.6499 98.2222 78.1123 98.3852C78.9501 98.6806 79.7973 98.9629 80.6143 99.4485Z" fill="#303F31"/>
<path d="M46.0167 88.7909C40.9231 97.6245 29.2994 101.3 19.9174 96.5522C9.92033 91.4928 6.13383 79.2577 11.2177 69.5781C16.3829 59.7433 28.3247 56.5499 37.3905 60.9056C47.9709 65.9892 51.6728 78.9797 46.0167 88.7909ZM19.5007 94.8961C28.584 100.171 40.1495 96.9626 45.2408 87.548C49.7812 79.1519 47.2847 67.7256 37.8182 62.5041C28.9202 57.596 17.9253 60.6097 12.8003 69.4993C7.38971 78.8836 10.9725 89.9436 19.5007 94.8961Z" fill="#FED6A4"/>
<path d="M73.828 70.6951C73.1319 71.9667 68.1506 67.8857 60.3723 66.7436C50.7303 65.327 46.9502 67.4719 46.7811 66.4699C46.5993 65.3965 59.0622 63.1097 71.542 69.2241C73.801 70.3307 73.9353 70.3229 73.828 70.6951Z" fill="#FED6A4"/>
<path d="M110.009 124.094C104.83 119.867 99.4574 103.466 100.71 103.225C101.111 103.148 101.248 103.602 101.372 104.026C106.489 121.516 111.688 123.302 110.927 124.222C110.661 124.543 110.277 124.249 110.009 124.094Z" fill="#FED6A4"/>
<path d="M93.4184 13.5981C87.9579 22.974 75.6653 26.4166 66.1086 20.7905C56.3613 15.0526 53.2086 2.96809 58.908 -6.65764C64.5913 -16.2555 76.6813 -19.3874 86.2872 -13.7116C95.8931 -8.03574 99.0329 3.95863 93.4184 13.5981ZM85.5334 -12.7498C76.5947 -17.8799 64.7791 -14.9421 59.6477 -5.2927C55.0539 3.3452 57.9713 14.7882 67.1744 19.8056C76.3775 24.8231 87.271 21.7954 92.4597 12.6188C97.5666 3.58701 94.3155 -7.71005 85.5334 -12.7498Z" fill="#FED6A4"/>
<path d="M82.2428 41.4864C80.4744 39.5814 79.2051 27.7792 79.0994 25.1329C79.0709 24.4254 79.8121 24.4174 79.9232 25.0733C80.0729 25.9547 80.4033 28.9284 80.4911 29.8176C81.3039 38.0771 83.0347 40.9919 82.2428 41.4864Z" fill="#FED6A4"/>
<path d="M80.8151 1.28699C79.4024 1.05391 78.8643 -0.29388 80.291 -0.780865C80.5166 -0.107961 80.7153 0.569803 80.8151 1.28699Z" fill="#FED6A4"/>
<path d="M83.261 13.5016C82.1796 14.2771 81.0621 14.1096 79.9592 13.6324C78.7699 13.1183 72.5009 9.67703 71.7396 9.21707C64.7247 4.98056 62.3873 3.44091 62.4287 0.562286C64.025 2.54513 65.8724 4.04025 67.9193 5.2684C81.3217 13.3097 81.6524 13.4616 83.261 13.5016Z" fill="#FED6A4"/>
<path d="M75.3487 2.9867C73.2323 1.31671 76.4548 0.310908 77.191 2.01142C77.6601 3.09485 76.3284 3.57458 75.3487 2.9867Z" fill="#FED6A4"/>
<path d="M72.0446 5.31931C70.3646 4.98201 70.5103 3.0393 71.9345 3.86153C72.8883 4.23874 72.9663 5.50457 72.0446 5.31931Z" fill="#FED6A4"/>
<path d="M67.0655 0.869297C65.4716 -0.0815274 68.8557 -0.875368 68.833 0.55213C68.8261 1.00269 67.9105 1.37387 67.0655 0.869297Z" fill="#FED6A4"/>
<path d="M76.4547 7.66497C75.8086 7.16945 75.9494 6.8853 76.4017 6.83938C78.7197 6.60348 78.5425 8.75161 76.4547 7.66497Z" fill="#FED6A4"/>
<path d="M77.8031 1.68071C77.206 0.541011 75.5109 0.180124 74.4895 0.977211C73.533 1.72277 74.2524 3.11491 75.0925 3.52849C76.9925 4.65605 78.5852 3.17307 77.8031 1.68071ZM75.3482 2.98597C73.2317 1.31598 76.4543 0.310175 77.1905 2.01069C77.6596 3.09411 76.3279 3.57385 75.3482 2.98597Z" fill="#303F31"/>
<path d="M73.4154 4.71744C73.325 3.65135 71.9649 2.7761 70.9513 3.1306C69.9462 3.48166 69.8134 4.83632 71.3063 5.7854C72.1077 6.3687 73.515 5.8881 73.4154 4.71744ZM72.0451 5.31867C70.3651 4.98137 70.5109 3.03866 71.935 3.86089C72.8888 4.2381 72.9669 5.50393 72.0451 5.31867Z" fill="#303F31"/>
<path d="M66.9664 -0.715056C64.7571 0.308016 67.3192 2.58782 68.9654 1.50395C70.504 0.490645 68.7123 -1.52337 66.9664 -0.715056ZM67.0653 0.869823C65.4715 -0.081002 68.8555 -0.874843 68.8328 0.552655C68.8259 1.00321 67.9103 1.3744 67.0653 0.869823Z" fill="#303F31"/>
<path d="M76.0983 6.28344C75.1282 6.44693 75.1164 7.6998 76.2009 8.27957C76.9814 8.69677 77.5602 8.76102 78.1534 8.45507C79.6769 7.66869 78.1111 5.94465 76.0983 6.28344ZM76.4556 7.665C75.8094 7.16949 75.9502 6.88533 76.4025 6.83942C78.7205 6.60352 78.5433 8.75165 76.4556 7.665Z" fill="#303F31"/>
<path d="M86.7471 7.6591C86.2549 5.82854 86.7595 6.21731 86.9652 5.63291C87.5438 3.99764 87.2978 2.49571 85.9199 1.38941C85.6881 1.20453 85.626 1.06296 85.7347 0.750959C86.6431 -1.85069 83.7171 -5.10214 80.9787 -3.39099C80.1355 -2.86394 80.0827 -2.84156 79.6647 -2.92892C74.6271 -4.00439 67.3412 -3.90111 63.4479 -1.92637C60.8977 -0.632587 61.2924 2.49321 63.2388 4.30991C66.3506 7.21225 69.8327 9.00092 73.1976 11.0021C77.5377 12.9596 80.9487 16.3028 83.8899 14.1698C86.1979 12.4986 87.4873 10.4083 86.7471 7.6591ZM74 -2.71898C73.3117 -1.1943 71.513 -1.30983 71.1006 -2.6184C72.0424 -2.76197 72.9631 -2.70168 74 -2.71898ZM64.0901 -1.34039C65.832 -2.22056 68.9237 -2.43089 70.0972 -2.57713C70.8547 -2.6713 70.3376 -1.06077 72.366 -0.896195C73.3201 -0.818409 74.0437 -1.33104 74.4255 -2.12082C74.6965 -2.67861 75.0005 -2.71183 75.4893 -2.65406C80.2657 -2.10139 79.8687 -2.46606 80.0773 -1.39754C79.8482 -1.29792 79.6525 -1.23373 79.4755 -1.13278C78.2426 -0.433688 78.642 1.60581 80.6068 2.03795C80.9343 2.11015 81.0931 2.2111 81.1398 2.55438C81.4298 4.66613 81.9975 9.17934 81.1704 11.4281C80.9608 12 80.9622 11.9944 80.4382 11.7308C79.6203 11.3189 70.3916 5.8719 67.8812 4.33627C66.3241 3.38441 64.8922 2.2414 63.6766 0.865183C62.6612 -0.284148 62.6879 -0.632386 64.0901 -1.34039ZM80.2915 -0.780393C80.5171 -0.107489 80.7158 0.570278 80.8156 1.28746C79.4029 1.05438 78.8647 -0.293409 80.2915 -0.780393ZM79.9584 13.6318C78.7694 13.1188 72.5001 9.67643 71.7388 9.21647C64.7247 4.97857 62.3865 3.44031 62.428 0.561686C64.0236 2.54413 65.8719 4.04074 67.9185 5.26781C81.3194 13.3118 81.6534 13.4611 83.262 13.5011C82.18 14.2762 81.0616 14.1101 79.9584 13.6318ZM84.267 12.3662C83.341 12.7778 81.5653 12.7043 81.7808 12.0996C83.1565 8.25482 81.8971 2.55377 80.8041 -1.38056C80.5277 -2.37683 80.56 -2.1226 81.3106 -2.63073C83.8306 -4.33627 85.8075 -0.533526 84.7854 0.688938C84.143 1.45623 84.7953 1.44787 85.6193 2.26683C86.6426 3.28526 86.6887 4.86661 85.6989 5.9287C85.3691 6.28465 85.4446 6.60375 85.5866 6.98442C86.3596 9.04203 86.0428 11.5752 84.267 12.3662Z" fill="#303F31"/>
<path d="M36.2797 86.6876C38.3089 87.6894 38.9495 87.8217 38.7477 89.439C38.5243 91.2302 37.5826 92.6604 36.3639 93.9132C35.7533 94.5403 34.9523 94.4655 34.3011 93.8437C33.5151 93.094 31.5305 89.9455 31.1563 88.8472C30.895 88.0786 28.8876 89.9826 22.7844 85.9794C22.2542 85.6316 22.2505 85.622 21.7436 85.9777C19.8335 87.3211 17.8191 88.4178 16.8788 86.2803C16.1811 84.6948 16.2778 83.0011 16.1609 82.8306C14.9685 82.9937 14.2948 82.7049 13.7811 81.5188C13.0664 79.8678 12.484 78.1549 12.3194 76.3447C12.0947 73.8709 15.3111 74.2993 17.6249 75.2002C18.8783 75.6882 18.3718 75.8651 18.9786 73.9094C19.3727 72.6388 20.0064 71.501 20.7692 70.4321C22.653 67.7926 28.279 69.8654 31.2196 71.2311C31.9222 70.2759 31.9352 69.2027 33.5069 67.883C35.7571 65.9939 40.6816 73.5892 41.579 76.2381C42.1452 77.91 41.328 78.6442 39.9048 79.2455C40.0423 79.8749 40.5341 81.2034 40.1247 82.0106C38.9394 84.3447 37.8243 85.4903 36.2797 86.6876ZM38.2506 83.5807C33.396 84.518 27.8557 81.5995 24.0763 78.1327C20.445 74.8015 20.7335 72.5135 20.2457 72.5807C20.0655 72.9025 18.7702 75.8289 19.2868 79.0232C19.6231 81.1014 27.2683 80.3355 22.9902 85.0862C30.8457 91.167 37.3378 85.6083 38.2506 83.5807ZM29.3874 76.5414C31.0101 76.8188 32.381 76.9155 33.5854 78.7481C33.81 79.0902 33.949 79.5675 34.263 79.7515C34.6361 79.9697 35.0759 79.5855 35.4936 79.4936C40.0833 78.4849 42.6163 78.593 39.7041 74.1881C34.2017 65.8667 34.0517 67.9517 32.1293 71.3584C31.1833 73.0339 30.2519 74.7178 29.3874 76.5414ZM22.3373 81.5497C16.3896 79.152 16.855 79.5478 17.076 83.6428C17.1133 84.335 17.2962 85.0111 17.4955 85.6734C17.7995 86.6876 18.4208 86.9498 19.3622 86.497C22.1399 85.1611 25.2512 82.7237 22.3373 81.5497ZM18.3835 77.7197C18.3347 77.2194 18.6771 76.6007 18.3041 76.249C18.005 75.9669 15.5242 75.1802 14.0929 75.2444C13.3066 75.2793 12.8873 75.6263 13.1121 76.8163C13.2897 77.7555 14.154 81.1701 15.0935 81.9963C15.395 82.2613 15.7172 82.1339 16.0391 82.0488C16.63 81.8928 15.7356 79.6084 17.3977 79.4418C18.7711 79.3043 18.6072 80.0075 18.3835 77.7197ZM37.2707 91.5055C39.0571 88.3969 37.8555 88.1919 36.0176 87.3906C35.6847 87.2457 35.4189 87.2128 35.0935 87.4053C32.6944 88.8262 31.4837 88.0873 32.0514 89.1043C34.8387 94.092 35.2981 94.9398 37.2707 91.5055ZM30.9751 71.8265C26.3014 69.2338 20.2697 69.051 20.9787 72.1467C21.8041 71.8979 22.6202 71.7939 23.3695 72.2553C25.3777 73.4927 26.3027 72.0481 28.303 73.3152C28.7485 73.5975 29.2185 73.8438 29.5889 74.2274L30.9751 71.8265ZM38.1624 82.9286C39.9084 82.2614 39.7605 81.1343 39.1095 79.6462C39.0487 79.5072 38.925 79.4756 38.789 79.5233C38.2914 79.6989 37.7392 79.6769 37.1877 79.9364C38.0272 80.7736 38.8106 81.5905 38.1624 82.9286Z" fill="#303F31"/>
<path d="M37.3163 83.0477C37.1458 83.2016 36.9273 83.1608 36.7298 83.1655C31.3199 83.2971 22.1568 77.4215 21.1329 72.7553C23.2148 72.0445 23.3322 73.7774 25.6154 73.4667C26.9642 73.2834 27.9995 73.9035 28.9978 74.6681C29.2286 74.845 29.3415 75.027 29.1522 75.3148C28.37 76.5041 29.2919 76.7887 26.8351 75.5428C25.7174 74.9754 26.0541 77.0418 30.1522 77.5544C32.7153 77.8756 32.9678 79.8034 34.0738 81.1172C34.6819 81.8394 35.5997 81.8804 35.3814 81.2673C35.2843 80.9952 35.0489 80.8212 34.815 80.5581C35.2572 80.2485 35.7525 80.234 36.2021 80.1077C36.5374 80.0137 37.4647 81.2113 37.6221 81.5379C37.8285 81.9678 37.6568 82.7406 37.3163 83.0477Z" fill="#FED6A4"/>
<path d="M37.1856 76.6791C36.5897 76.3471 36.1674 77.2777 36.7759 77.5734C37.3687 77.8609 37.7721 77.0177 37.1856 76.6791Z" fill="#303F31"/>
<path d="M37.1731 73.7972C36.8018 73.568 36.3774 73.9946 36.5373 74.3699C36.5989 74.5139 36.731 74.6097 36.8762 74.6249C37.331 74.6741 37.5852 74.0556 37.1731 73.7972Z" fill="#303F31"/>
<path d="M39.2015 76.0407C39.4091 75.5251 38.6778 75.1659 38.4474 75.6646C38.2243 76.149 38.9648 76.6257 39.2015 76.0407Z" fill="#303F31"/>
<path d="M28.9091 79.3265C28.2411 79.5114 28.4658 78.9648 26.8138 78.3283C24.3471 77.3791 24.8608 75.9429 23.1026 75.1226C22.9675 75.0594 22.7847 74.9919 22.8458 74.8009C22.9233 74.559 23.1272 74.6526 23.2991 74.6841C25.1915 75.0327 24.4949 76.9013 27.7127 78.0439C28.2949 78.2502 28.8201 78.5905 28.9091 79.3265Z" fill="#303F31"/>
<path d="M19.0981 82.0031C18.5902 81.7099 18.0552 82.4678 18.5688 82.8283C18.7795 82.9806 19.0896 82.9593 19.2821 82.703C19.421 82.5106 19.3586 82.1545 19.0981 82.0031Z" fill="#303F31"/>
<path d="M19.3879 84.8347C19.5539 84.258 18.7869 83.9107 18.5211 84.4706C18.2649 85.0092 19.0178 85.4179 19.3684 84.8782C19.3764 84.8643 19.3844 84.8503 19.3879 84.8347Z" fill="#303F31"/>
<path d="M35.8191 89.0875C35.4092 88.8945 35.0887 89.5044 35.4456 89.7522C35.6143 89.8681 35.8488 89.8394 36.0024 89.6377C36.1055 89.5024 36.0569 89.2026 35.8191 89.0875Z" fill="#303F31"/>
<path d="M36.1094 90.7875C36.1114 90.4677 35.6925 90.2982 35.4871 90.6026C35.3512 90.8043 35.4467 90.9763 35.5327 91.0426C35.8276 91.2435 36.1087 91.0459 36.1094 90.7875Z" fill="#303F31"/>
<path d="M14.7517 76.3604C14.2858 76.0924 13.8322 76.7544 14.2622 77.0973C14.4317 77.236 14.7002 77.2417 14.9012 77.0237C15.0325 76.8862 15.0223 76.5167 14.7517 76.3604Z" fill="#303F31"/>
<path d="M15.2681 78.4898C15.4497 78.0242 14.7514 77.672 14.4937 78.128C14.4417 78.2196 14.3654 78.5317 14.6778 78.7121C14.8545 78.8141 15.1698 78.742 15.2681 78.4898Z" fill="#303F31"/>
<path d="M147.248 76.8275C137.635 71.2589 134.641 58.8496 140.051 49.56C145.739 39.7957 157.878 36.8676 167.248 42.2122C177.177 47.8761 180.194 60.1086 174.664 69.6308C168.992 79.3967 156.888 82.4119 147.248 76.8275ZM166.739 43.2995C158.333 38.3735 146.933 40.7265 141.384 49.8815C136.123 58.5618 138.575 69.8213 147.667 75.4566C156.297 80.8047 167.674 78.0798 173.106 69.6596C178.848 60.7592 176.178 48.8318 166.739 43.2995Z" fill="#FED6A4"/>
<path d="M108.595 71.5933C111.056 70.4741 122.079 74.8882 133.081 69.5766C136.47 67.9404 136.613 67.5394 136.899 68.059C137.111 68.4428 136.751 68.635 136.511 68.7847C125.496 75.6768 111.633 73.3999 108.595 71.5933Z" fill="#FED6A4"/>
<path d="M163.336 57.7732C163.004 57.5006 162.714 57.4083 162.297 57.4653C158.877 57.9382 156.169 55.5071 155.835 53.6763C155.745 53.1858 155.544 53.0315 153.605 52.4307C151.863 51.8913 148.715 51.1658 147.358 52.3868C146.658 53.0154 146.81 53.6464 148.475 55.7244C149.651 57.1918 150.988 58.4889 152.469 59.6417C153.32 58.6109 154.374 58.4474 155.287 59.1767C156.379 60.0496 156.511 60.8687 155.73 61.9408C156.298 62.5519 163.361 66.5178 168.329 66.136C169.825 66.0207 169.04 62.4486 163.336 57.7732ZM151.653 54.5047C151.079 53.547 153.269 53.7494 153.495 54.9032C153.649 55.6877 152.064 55.1912 151.653 54.5047ZM160.535 60.7485C159.991 59.2064 162.519 59.7699 163.063 61.2743C163.601 62.7638 161.038 62.1745 160.535 60.7485Z" fill="#FED6A4"/>
<path d="M172.603 63.5435C172.645 60.3007 169.773 57.0611 167.387 54.8646C166.556 54.0988 166.823 54.2354 167.15 53.1415C167.288 52.6805 167.247 52.5779 166.8 52.3585C166.378 52.1515 165.907 52.0019 165.462 52.0324C163.47 52.168 162.196 51.0273 161.306 50.5207C156.503 47.7893 148.391 44.7884 145.485 49.5006C137.103 63.095 149.989 75.0272 160.608 73.5051C168.072 72.435 172.572 65.9023 172.603 63.5435ZM166.234 52.8576C166.833 52.9206 166.355 53.4998 166.065 54.0186C164.576 56.6804 162.207 57.2854 159.61 56.5497C159.121 56.4113 159.103 56.3451 159.263 55.8389C159.651 54.6058 160.535 53.835 161.648 53.2666C163.234 52.4576 164.789 52.7057 166.234 52.8576ZM155.286 59.1767C154.374 58.4474 153.32 58.6116 152.469 59.6418C150.988 58.489 149.65 57.1914 148.475 55.7244C146.81 53.6464 146.658 53.0154 147.358 52.3868C148.715 51.1658 151.863 51.8913 153.605 52.4307C155.544 53.0315 155.745 53.1858 155.835 53.6763C156.169 55.5075 158.877 57.9382 162.297 57.4654C162.713 57.4079 163.004 57.5006 163.336 57.7732C169.04 62.4486 169.825 66.0214 168.328 66.1367C163.361 66.5178 156.297 62.5526 155.729 61.9415C156.511 60.8687 156.379 60.0496 155.286 59.1767ZM155.292 61.2394C154.95 61.6014 154.697 61.2782 154.415 61.1256C153.527 60.4615 152.705 60.0497 153.433 59.6258C154.302 59.1187 155.923 60.5711 155.292 61.2394ZM158.424 55.8142C157.017 55.0087 155.898 53.0089 156.675 51.2487C158.098 51.5292 158.941 52.4346 159.409 53.7591C159.573 54.225 159.43 53.7693 158.424 55.8142ZM148.212 48.0561C152.979 46.583 161.702 51.2604 162.3 52.1276C161.412 52.4048 160.717 52.8781 160.015 53.432C159.561 51.973 158.551 51.1378 157.19 50.6915C155.941 50.2829 155.896 50.7848 155.668 52.281C154.767 52.1852 149.063 49.4123 146.533 52.1023C145.631 50.4455 146.39 48.6191 148.212 48.0561ZM144.278 61.6648C143.365 58.1322 143.962 54.9158 145.386 51.6055C145.706 50.8617 145.249 52.365 147.321 55.3172C151.658 61.4956 162.863 68.2075 170.068 66.6414C160.555 78.4482 146.487 70.213 144.278 61.6648ZM169.871 65.7802C169.804 62.3649 166.484 59.282 163.785 57.1124C164.872 56.5647 165.66 55.849 166.312 54.9458C170.773 58.7951 174.238 64.3662 169.871 65.7802Z" fill="#303F31"/>
<path d="M161.215 59.2203C158.656 59.0322 159.861 62.7831 162.426 62.8443C164.892 62.9034 163.674 59.4007 161.215 59.2203ZM160.534 60.749C159.99 59.2069 162.519 59.7697 163.063 61.2747C163.601 62.7643 161.037 62.175 160.534 60.749Z" fill="#303F31"/>
<path d="M154.283 54.8766C154.12 53.8292 152.698 52.9348 151.691 53.2486C150.479 53.6265 150.596 55.0188 151.945 55.7487C153.221 56.5872 154.44 55.8971 154.283 54.8766ZM151.652 54.5053C151.078 53.5476 153.268 53.75 153.494 54.9038C153.648 55.6883 152.064 55.1923 151.652 54.5053Z" fill="#303F31"/>
</g>
</g>
<defs>
<clipPath id="clip0_157691_2780">
<rect width="171" height="105" fill="white"/>
</clipPath>
<clipPath id="clip1_157691_2780">
<rect width="160.669" height="160.669" fill="white" transform="translate(68.335 -39) rotate(30)"/>
</clipPath>
</defs>
</svg>
