<svg width="171" height="105" viewBox="0 0 171 105" fill="none" xmlns="http://www.w3.org/2000/svg">
<g clip-path="url(#clip0_157716_2915)">
<mask id="mask0_157716_2915" style="mask-type:luminance" maskUnits="userSpaceOnUse" x="0" y="0" width="171" height="105">
<path d="M171 0H0V105H171V0Z" fill="white"/>
</mask>
<g mask="url(#mask0_157716_2915)">
<mask id="mask1_157716_2915" style="mask-type:luminance" maskUnits="userSpaceOnUse" x="-12" y="-39" width="220" height="220">
<path d="M207.478 41.3345L68.335 -39L-11.9995 100.143L127.144 180.478L207.478 41.3345Z" fill="white"/>
</mask>
<g mask="url(#mask1_157716_2915)">
<path d="M76.0548 44.2826C76.7154 41.4739 76.7074 41.4684 77.3776 41.7264C95.4396 48.6879 96.4841 46.4979 94.0995 51.0812C93.9172 51.4323 93.724 51.497 93.3018 51.3367C76.8205 45.0949 75.6668 45.9315 76.0548 44.2826ZM77.2382 42.4483C76.5738 45.0322 76.4991 44.5864 77.5165 44.9531L93.1191 50.5058C93.7448 50.7316 93.6473 50.4361 94.2549 48.6913C94.4992 47.9901 93.8721 48.4657 85.7196 45.4462C82.9286 44.4127 80.0706 43.5659 77.2382 42.4483Z" fill="#FED6A4"/>
<path d="M62.6993 88.7168C61.8784 88.3068 62.507 88.0102 62.947 85.6382C63.1237 84.6864 63.5854 85.016 66.6695 85.8745C72.2262 87.4214 75.1039 89.1273 78.5132 90.2627C79.6794 90.6512 78.9622 92.3707 78.5488 93.5077C78.3924 93.9377 78.2563 93.8601 74.6261 92.5239C72.4334 91.7171 64.5929 89.4826 62.6993 88.7168ZM63.073 88.0244L77.9939 92.8589C78.6067 90.8287 78.7273 91.1645 76.9038 90.5134C76.8869 90.5074 66.567 86.1661 63.6429 85.7681C63.5591 86.5527 63.3578 87.2677 63.073 88.0244Z" fill="#FED6A4"/>
<path d="M98.391 76.7973C97.3115 78.8309 93.3233 75.4559 83.3019 72.529C82.3422 72.2486 82.7332 72.0133 83.7938 69.0403C84.0136 68.4251 84.8126 68.6109 85.4998 68.8537C87.8002 69.667 90.1707 70.2833 92.4154 71.2491C94.1391 71.991 95.8339 72.8025 97.6131 73.4114C99.8359 74.1725 99.5031 73.9553 98.391 76.7973ZM83.4922 71.8587C91.721 74.1357 97.281 77.6546 97.7217 76.4415C98.778 73.5338 99.1029 75.0581 94.5104 72.9836C89.7224 70.8204 89.8723 71.1583 86.8874 70.088C84.4521 69.2145 84.3469 69.1862 84.2083 69.6832C84.0093 70.3975 83.7486 71.0949 83.4922 71.8587Z" fill="#FED6A4"/>
<path d="M73.2989 54.5539C72.7279 54.2864 73.0206 53.6558 73.5782 53.858C92.4099 60.7074 92.1028 60.2769 92.4905 60.4794C92.8105 60.6465 92.7344 61.1898 92.2835 61.1641C90.2982 61.0504 75.4064 55.4071 73.2989 54.5539Z" fill="#FED6A4"/>
<path d="M66.6663 76.9788C66.4021 76.8485 66.1193 76.7437 66.2008 76.4596C66.3138 76.0647 66.7719 76.2272 67.2103 76.4014C79.8574 81.4194 83.9637 81.4424 83.5596 82.4299C83.4656 82.6585 83.2419 82.6926 83.0362 82.6407C80.5884 82.0298 66.5912 77.1748 66.6663 76.9788Z" fill="#FED6A4"/>
<path d="M75.3703 48.6204C75.0927 48.449 74.8237 48.3558 74.9709 48.0559C75.3221 47.3431 80.2484 49.6975 84.1338 51.0094C87.6124 52.1838 91.0064 53.2268 91.3482 53.631C92.6296 55.1454 84.6155 52.14 75.3703 48.6204Z" fill="#FED6A4"/>
<path d="M71.8431 58.9076C72.0064 58.5381 72.3627 58.6761 72.6491 58.8099C75.6416 60.2092 78.8498 60.978 81.9793 61.9731C83.4501 62.4414 84.8511 63.0917 86.3112 63.5849C86.5853 63.6773 86.979 63.8276 86.828 64.221C86.6771 64.614 86.2972 64.4382 86.0221 64.3379C77.7941 61.3462 71.4542 59.7869 71.8431 58.9076Z" fill="#FED6A4"/>
<path d="M98.2467 109.246C97.4634 109.621 97.8477 109.598 88.6579 106.223C85.7709 105.163 85.7098 105.073 85.5615 104.899C85.241 104.524 85.4961 104.262 85.8362 104.364C86.4444 104.545 96.3888 108.191 96.9613 108.403C97.419 108.573 97.9397 108.695 98.2467 109.246Z" fill="#FED6A4"/>
<path d="M79.7133 76.4827C79.2275 77.2068 70.9118 73.7211 67.9962 72.9756C67.428 72.8303 67.5469 72.2886 68.1333 72.3108C68.8429 72.3383 68.3788 72.2215 78.9647 75.7564C79.4912 75.9323 79.9119 76.1131 79.7133 76.4827Z" fill="#FED6A4"/>
<path d="M100.77 68.4139C100.637 68.3278 101.291 68.6867 100.808 68.8636C99.8881 69.2014 89.4435 65.237 89.1542 65.0616C88.9767 64.9545 88.9708 64.5903 89.2742 64.5372C89.7191 64.4592 100.363 68.2171 100.77 68.4139Z" fill="#FED6A4"/>
<path d="M91.7758 89.8181C91.6122 90.1948 91.252 90.0361 90.9637 89.9299C80.613 86.1208 80.6512 86.1012 80.7573 85.7617C80.9367 85.189 81.4504 85.5589 90.5686 88.866C91.0188 89.0295 91.9667 89.3782 91.7758 89.8181Z" fill="#FED6A4"/>
<path d="M82.9864 54.2996C82.6427 54.1011 82.2527 53.9474 82.4521 53.6164C82.6591 53.274 82.832 53.5528 86.124 54.6585C93.3244 57.0763 93.198 56.9226 93.617 57.2285C93.9628 57.481 93.9365 57.8462 93.4078 57.8221C92.6404 57.7871 85.1399 55.1775 82.9864 54.2996Z" fill="#FED6A4"/>
<path d="M87.3723 100.102C87.4865 99.8477 87.7272 99.9385 87.9138 99.9961C98.1919 103.15 97.5436 102.996 98.3851 103.379C98.8044 103.57 98.7939 104.297 97.6462 103.912C89.6427 101.227 87.0551 100.81 87.3723 100.102Z" fill="#FED6A4"/>
<path d="M61.359 92.6145C61.5211 92.324 61.743 92.4651 62.0253 92.5994C64.7145 93.8718 64.6912 93.5012 71.6212 96.3761C72.6336 96.7964 72.3328 97.4697 71.2881 97.0604C63.3036 93.9329 61.0064 93.2476 61.359 92.6145Z" fill="#FED6A4"/>
<path d="M59.6947 97.7692C59.8481 97.4617 60.1413 97.6384 60.3794 97.7128C70.4997 100.91 70.5876 100.784 70.4676 101.284C70.3807 101.647 69.8716 101.535 69.5168 101.421C59.7593 98.2518 59.4436 98.2699 59.6947 97.7692Z" fill="#FED6A4"/>
<path d="M68.5918 105.19C68.1014 105.798 67.6947 105.474 65.0264 104.633C59.5435 102.906 60.4647 103.262 58.7594 102.532C57.9039 102.166 58.1568 101.598 58.832 101.874C61.7536 103.07 66.6298 104.057 68.5918 105.19Z" fill="#FED6A4"/>
<path d="M117.826 74.2515L105.708 113.832C105.898 114.259 106.097 114.689 106.306 115.123C108.403 108.296 112.047 96.0698 118.657 74.2647C118.377 74.2634 118.1 74.2582 117.826 74.2515Z" fill="#FED6A4"/>
<path d="M103.042 122.538C86.2122 117.378 69.505 112.413 52.6436 107.324C53.8179 103.705 59.4459 85.7753 64.8393 68.577C64.569 68.4924 64.2922 68.4095 64.0091 68.3296C58.1025 87.1156 51.8914 106.887 51.7428 107.252C51.2783 108.394 48.8585 107.005 102.896 123.581C103.38 123.729 103.574 123.79 105.162 118.799C104.955 118.417 104.75 118.026 104.546 117.628L103.042 122.538Z" fill="#FED6A4"/>
<path d="M74.5415 34.9676C74.0758 36.3333 69.6324 50.4466 64.7896 65.8462C65.0662 65.9215 65.3432 66.0007 65.6208 66.0822L74.9352 36.3823C75.4166 34.8513 75.017 34.9843 79.3474 36.3351C79.4664 36.3844 79.6215 36.4433 79.8061 36.5109C79.7425 36.221 79.6816 35.928 79.6223 35.6321L79.0551 35.453C74.6345 34.3164 74.9216 33.8513 74.5415 34.9676Z" fill="#FED6A4"/>
<path d="M114.684 100.15C115.583 97.2415 118.127 91.2879 120.274 83.9035C121.34 80.2388 122.327 76.9566 123.23 74.0149C122.905 74.0515 122.581 74.0846 122.261 74.1129C117.422 89.4294 111.031 108.061 107.805 117.943C108.068 118.393 108.344 118.843 108.632 119.291C109.989 115.093 111.952 108.971 114.684 100.15Z" fill="#FED6A4"/>
<path d="M107.548 122.64C107.266 122.259 106.981 121.845 106.694 121.402C106.39 122.373 106.152 123.163 105.992 123.742C104.347 128.513 104.97 129.187 102.326 128.525C94.3136 126.518 87.6404 123.959 66.305 117.269C48.364 111.643 47.5923 111.399 49.3095 104.957C49.4197 104.543 55.2241 85.7427 61.0329 67.6497C60.7245 67.5959 60.4132 67.547 60.1345 67.5076C55.9103 80.7336 48.018 105.648 47.6901 107.622C46.7889 113.06 51.9162 113.942 67.3607 118.886C82.648 123.78 101.374 129.924 103.758 129.884C105.088 129.86 105.83 128.515 106.136 127.22C106.303 126.513 106.747 125.12 107.548 122.64Z" fill="#FED6A4"/>
<path d="M81.731 33.3221C81.7822 33.6495 81.8389 33.9883 81.9012 34.3415C84.3634 35.0432 87.3934 35.9086 90.7635 37.1568C92.0261 37.6241 91.7739 37.0054 91.1084 39.3567C90.574 39.1271 85.6999 37.5644 82.3169 36.4878C82.3797 36.7856 82.4462 37.093 82.5168 37.4093C85.8564 38.4646 90.4844 39.8174 90.9631 39.8832C90.1323 43.0028 89.9823 43.1388 93.5375 44.3862C95.4759 45.0666 107.305 48.5101 107.324 48.5156C108.362 48.8036 108.579 48.5639 109.479 45.9744C110.348 46.2292 112.479 46.7436 124.364 50.4004C124.895 50.564 124.792 51.3806 118.687 71.4292C118.957 71.4421 119.231 71.4528 119.507 71.4604C126.001 50.0641 126.364 50.2109 125.265 49.8656L109.804 45.0264C109.977 44.5214 110.171 43.9493 110.395 43.303C112.805 44.3662 128.332 48.2655 128.526 50.1602C128.753 52.3718 126.394 60.8679 123.117 71.3829C123.432 71.359 123.749 71.3306 124.069 71.2966C129.571 53.5822 131.379 49.6715 127.473 48.0978C125.118 47.1496 113.079 42.8404 110.694 42.4485C111.114 41.2122 111.242 39.727 109.974 39.4104C109.504 39.2934 108.685 38.9314 104.926 37.7455C103.906 37.4237 106.537 33.9836 105.095 33.3608C102.938 32.4298 101.722 32.1081 101.207 33.3451C100.093 36.0201 100.802 36.3341 99.9136 36.037C98.1843 35.4589 96.4135 35.033 94.6466 34.5861C93.2756 34.2389 92.887 34.6083 92.0359 36.64C90.4299 35.9335 85.7412 34.4964 81.731 33.3221ZM102.576 33.3669C104.99 34.111 105.069 33.4647 103.716 37.3227C101.375 36.5445 101.112 36.6143 101.241 36.0746C101.782 33.8055 101.919 33.1637 102.576 33.3669ZM109.567 39.9241C111.012 40.3614 109.627 42.7361 108.474 46.5831C108.103 47.8216 107.845 47.9523 106.645 47.5736C102.223 46.1795 96.3085 44.8423 92.0793 43.0703C90.9744 42.6077 90.6795 42.8744 93.0628 36.0279C94.1176 34.0497 93.854 35.1684 109.567 39.9241Z" fill="#FED6A4"/>
<path d="M60.9424 64.9833C61.2387 65.0357 61.5366 65.0917 61.8371 65.1511C66.1663 51.7161 70.3517 39.1662 72.0221 35.46C73.6826 31.7741 73.4332 32.0503 77.7982 33.089C78.2307 33.246 78.7161 33.4047 79.25 33.5692C79.1947 33.2312 79.1419 32.8936 79.0918 32.5595C76.8661 31.9238 75.2707 31.4897 75.2789 31.5158C71.5922 31.2528 71.7372 32.3642 62.7112 59.4935C62.5488 59.9805 61.8939 62.0114 60.9424 64.9833Z" fill="#FED6A4"/>
<path d="M71.7201 83.3549C71.5556 83.2414 71.351 83.1251 71.4541 82.8757C71.5687 82.5986 71.7911 82.6278 72.0368 82.7149C78.3705 84.958 78.47 84.8355 78.7714 85.414C79.3128 86.451 74.4848 84.4613 71.7201 83.3549Z" fill="#FED6A4"/>
<path d="M74.6266 51.4304C74.3225 51.2549 73.9746 51.1329 74.1023 50.8281C74.2404 50.5006 74.5497 50.5883 74.9107 50.7197C80.8491 52.87 81.0551 52.7895 80.9043 53.2757C80.7226 53.8619 78.0935 52.7456 74.6266 51.4304Z" fill="#FED6A4"/>
<path d="M64.9417 80.8142C64.8186 80.7431 64.5721 80.6704 64.6618 80.404C64.8415 79.8695 65.5817 80.2505 68.8111 81.6011C69.0772 81.7121 69.4929 81.8324 69.3475 82.216C69.0954 82.8793 65.5711 81.1154 64.9417 80.8142Z" fill="#FED6A4"/>
<path d="M105.824 93.527C105.598 93.3821 105.369 93.3078 105.432 93.0409C105.503 92.7389 105.752 92.7247 105.982 92.7864C107.237 93.1237 109.143 93.5826 108.901 94.1832C108.724 94.6217 108.225 94.3625 105.824 93.527Z" fill="#FED6A4"/>
<path d="M107.357 90.027C106.76 89.6864 107.064 89.2057 107.542 89.3046C110.176 89.8497 109.854 89.7554 110.16 89.9192C110.79 90.255 110.676 91.2182 107.357 90.027Z" fill="#FED6A4"/>
<path d="M83.0706 77.5473C82.8654 77.4817 82.6366 77.4377 82.679 77.1747C82.7739 76.5829 83.8038 77.0244 86.6741 77.9831C87.8968 78.3912 87.0774 78.8254 83.0706 77.5473Z" fill="#FED6A4"/>
<path d="M108.903 86.641C108.68 86.4703 108.428 86.3267 108.534 86.0718C108.698 85.6799 108.933 85.8337 111.443 86.7787C111.978 86.9803 112.533 88.2054 108.903 86.641Z" fill="#FED6A4"/>
<path d="M118.819 63.1536C118.141 63.082 115.57 62.5822 115.752 61.9103C115.952 61.1686 118.458 62.3754 118.764 62.8696C118.789 62.9089 118.786 62.9685 118.819 63.1536Z" fill="#FED6A4"/>
<path d="M118.471 64.6301C119.05 65.0279 118.75 65.3123 118.313 65.2713C117.46 65.1909 116.665 64.8877 115.857 64.6412C115.489 64.5288 115.497 63.862 116.241 63.9927C117.029 64.1314 117.769 64.4342 118.471 64.6301Z" fill="#FED6A4"/>
<path d="M114.702 67.3703C114.538 67.259 114.341 67.14 114.432 66.8946C114.533 66.6224 114.762 66.712 114.957 66.7698C117.479 67.5219 117.352 67.4971 117.585 67.6352C117.805 67.7661 118.398 68.8277 114.702 67.3703Z" fill="#FED6A4"/>
<path d="M75.8113 103.146C75.5275 102.982 75.21 102.833 75.3703 102.53C75.5148 102.257 75.6828 102.331 77.9624 103.112C78.7033 103.367 78.5757 104.431 75.8113 103.146Z" fill="#FED6A4"/>
<path d="M80.6141 99.4486C80.1906 100.107 79.0489 99.4346 77.9087 98.8839C77.4669 98.6705 77.6497 98.2223 78.1121 98.3853C78.9499 98.6807 79.7971 98.963 80.6141 99.4486Z" fill="#FED6A4"/>
<path d="M46.0166 88.791C40.923 97.6246 29.2993 101.3 19.9173 96.5523C9.92026 91.4929 6.13376 79.2578 11.2176 69.5782C16.3828 59.7434 28.3246 56.55 37.3904 60.9057C47.9708 65.9893 51.6727 78.9798 46.0166 88.791ZM19.5006 94.8962C28.5839 100.171 40.1494 96.9627 45.2407 87.5481C49.7811 79.152 47.2846 67.7257 37.8181 62.5042C28.9201 57.5961 17.9252 60.6098 12.8002 69.4994C7.38964 78.8837 10.9724 89.9437 19.5006 94.8962Z" fill="#FED6A4"/>
<path d="M73.8282 70.6951C73.1321 71.9667 68.1508 67.8857 60.3725 66.7436C50.7305 65.327 46.9504 67.4719 46.7813 66.4699C46.5995 65.3965 59.0624 63.1097 71.5422 69.2241C73.8012 70.3307 73.9355 70.3229 73.8282 70.6951Z" fill="#FED6A4"/>
<path d="M110.009 124.094C104.83 119.867 99.4571 103.466 100.71 103.225C101.111 103.148 101.248 103.602 101.372 104.026C106.489 121.516 111.688 123.302 110.927 124.222C110.661 124.543 110.277 124.249 110.009 124.094Z" fill="#FED6A4"/>
<path d="M93.4181 13.5981C87.9576 22.974 75.665 26.4166 66.1083 20.7905C56.361 15.0526 53.2083 2.96813 58.9077 -6.6576C64.591 -16.2555 76.681 -19.3874 86.2869 -13.7116C95.8928 -8.0357 99.0326 3.95867 93.4181 13.5981ZM85.5331 -12.7498C76.5944 -17.8799 64.7788 -14.9421 59.6474 -5.29266C55.0536 3.34524 57.971 14.7882 67.1741 19.8056C76.3772 24.8231 87.2707 21.7954 92.4594 12.6188C97.5663 3.58705 94.3152 -7.71001 85.5331 -12.7498Z" fill="#FED6A4"/>
<path d="M82.2428 41.4864C80.4744 39.5814 79.2051 27.7792 79.0994 25.1329C79.0709 24.4254 79.8121 24.4174 79.9232 25.0733C80.0729 25.9547 80.4033 28.9284 80.4911 29.8176C81.3039 38.0771 83.0347 40.9919 82.2428 41.4864Z" fill="#FED6A4"/>
<path d="M80.8149 1.28709C79.4022 1.05401 78.8641 -0.293777 80.2908 -0.780762C80.5164 -0.107858 80.7151 0.569906 80.8149 1.28709Z" fill="#FED6A4"/>
<path d="M83.2611 13.5017C82.1797 14.2772 81.0622 14.1097 79.9593 13.6325C78.77 13.1184 72.501 9.67712 71.7397 9.21716C64.7248 4.98065 62.3874 3.441 62.4288 0.562378C64.0251 2.54522 65.8725 4.04034 67.9194 5.26849C81.3218 13.3098 81.6525 13.4617 83.2611 13.5017Z" fill="#FED6A4"/>
<path d="M75.3486 2.98671C73.2322 1.31672 76.4547 0.310923 77.1909 2.01143C77.66 3.09486 76.3283 3.57459 75.3486 2.98671Z" fill="#FED6A4"/>
<path d="M72.0444 5.3193C70.3644 4.982 70.5101 3.03929 71.9343 3.86152C72.8881 4.23873 72.9661 5.50456 72.0444 5.3193Z" fill="#FED6A4"/>
<path d="M67.0656 0.869311C65.4717 -0.0815133 68.8558 -0.875354 68.8331 0.552144C68.8262 1.0027 67.9106 1.37388 67.0656 0.869311Z" fill="#FED6A4"/>
<path d="M76.4547 7.66501C75.8086 7.16949 75.9494 6.88534 76.4017 6.83942C78.7197 6.60352 78.5425 8.75165 76.4547 7.66501Z" fill="#FED6A4"/>
<path d="M77.8029 1.68077C77.2058 0.541067 75.5107 0.18018 74.4893 0.977267C73.5328 1.72283 74.2521 3.11497 75.0922 3.52855C76.9922 4.65611 78.585 3.17313 77.8029 1.68077ZM75.3479 2.98603C73.2314 1.31604 76.454 0.31023 77.1902 2.01075C77.6593 3.09417 76.3276 3.57391 75.3479 2.98603Z" fill="#FED6A4"/>
<path d="M73.4152 4.71746C73.3248 3.65137 71.9647 2.77612 70.9511 3.13062C69.946 3.48168 69.8132 4.83634 71.3061 5.78542C72.1075 6.36872 73.5148 5.88812 73.4152 4.71746ZM72.0449 5.31869C70.3649 4.98139 70.5107 3.03868 71.9348 3.86091C72.8886 4.23812 72.9667 5.50395 72.0449 5.31869Z" fill="#FED6A4"/>
<path d="M66.9664 -0.714957C64.7571 0.308115 67.3192 2.58792 68.9654 1.50405C70.504 0.490744 68.7123 -1.52327 66.9664 -0.714957ZM67.0653 0.869922C65.4715 -0.0809033 68.8555 -0.874744 68.8328 0.552754C68.8259 1.00331 67.9103 1.3745 67.0653 0.869922Z" fill="#FED6A4"/>
<path d="M76.0985 6.28343C75.1284 6.44692 75.1166 7.69979 76.2011 8.27956C76.9816 8.69676 77.5604 8.76101 78.1536 8.45506C79.6771 7.66868 78.1113 5.94464 76.0985 6.28343ZM76.4558 7.66499C75.8096 7.16948 75.9504 6.88532 76.4027 6.83941C78.7207 6.60351 78.5435 8.75164 76.4558 7.66499Z" fill="#FED6A4"/>
<path d="M86.7469 7.65909C86.2547 5.82853 86.7593 6.2173 86.965 5.6329C87.5436 3.99763 87.2976 2.4957 85.9197 1.3894C85.6879 1.20452 85.6258 1.06295 85.7345 0.750947C86.6429 -1.8507 83.7169 -5.10215 80.9785 -3.391C80.1353 -2.86395 80.0825 -2.84157 79.6645 -2.92893C74.6269 -4.0044 67.341 -3.90112 63.4477 -1.92638C60.8975 -0.632599 61.2922 2.4932 63.2386 4.3099C66.3504 7.21224 69.8325 9.00091 73.1974 11.0021C77.5375 12.9596 80.9485 16.3028 83.8897 14.1698C86.1977 12.4986 87.4871 10.4083 86.7469 7.65909ZM73.9998 -2.71899C73.3115 -1.19431 71.5128 -1.30984 71.1004 -2.61841C72.0422 -2.76198 72.9629 -2.70169 73.9998 -2.71899ZM64.0899 -1.3404C65.8318 -2.22057 68.9235 -2.4309 70.097 -2.57714C70.8545 -2.67131 70.3374 -1.06078 72.3658 -0.896206C73.3199 -0.81842 74.0435 -1.33105 74.4253 -2.12083C74.6963 -2.67862 75.0003 -2.71184 75.4891 -2.65407C80.2655 -2.1014 79.8685 -2.46607 80.0771 -1.39755C79.848 -1.29793 79.6523 -1.23374 79.4753 -1.13279C78.2424 -0.433699 78.6418 1.6058 80.6066 2.03794C80.9341 2.11014 81.0929 2.21109 81.1396 2.55437C81.4296 4.66612 81.9973 9.17933 81.1702 11.4281C80.9606 12 80.962 11.9944 80.438 11.7308C79.6201 11.3189 70.3914 5.87189 67.881 4.33626C66.3239 3.3844 64.892 2.24139 63.6764 0.865171C62.661 -0.28416 62.6877 -0.632397 64.0899 -1.3404ZM80.2913 -0.780404C80.5169 -0.1075 80.7156 0.570266 80.8154 1.28745C79.4027 1.05437 78.8645 -0.29342 80.2913 -0.780404ZM79.9582 13.6318C78.7692 13.1188 72.4999 9.67642 71.7386 9.21646C64.7245 4.97856 62.3863 3.4403 62.4278 0.561675C64.0234 2.54412 65.8717 4.04073 67.9183 5.2678C81.3192 13.3118 81.6532 13.4611 83.2618 13.5011C82.1798 14.2762 81.0614 14.1101 79.9582 13.6318ZM84.2668 12.3662C83.3408 12.7778 81.5651 12.7043 81.7806 12.0996C83.1563 8.25481 81.8969 2.55376 80.8039 -1.38057C80.5275 -2.37684 80.5598 -2.12261 81.3104 -2.63074C83.8304 -4.33628 85.8073 -0.533537 84.7852 0.688927C84.1428 1.45622 84.7951 1.44786 85.6191 2.26682C86.6424 3.28525 86.6885 4.8666 85.6987 5.92869C85.3689 6.28464 85.4444 6.60374 85.5864 6.98441C86.3594 9.04202 86.0426 11.5752 84.2668 12.3662Z" fill="#FED6A4"/>
<path d="M36.2796 86.6877C38.3088 87.6895 38.9494 87.8218 38.7476 89.4391C38.5242 91.2303 37.5825 92.6605 36.3638 93.9133C35.7532 94.5404 34.9522 94.4656 34.301 93.8438C33.515 93.0941 31.5304 89.9456 31.1562 88.8473C30.8949 88.0787 28.8875 89.9827 22.7843 85.9795C22.2541 85.6317 22.2504 85.6221 21.7435 85.9778C19.8334 87.3212 17.819 88.4179 16.8787 86.2804C16.181 84.6949 16.2777 83.0012 16.1608 82.8307C14.9684 82.9938 14.2947 82.705 13.781 81.5189C13.0663 79.8679 12.4839 78.155 12.3193 76.3448C12.0946 73.871 15.311 74.2994 17.6248 75.2003C18.8782 75.6883 18.3717 75.8652 18.9785 73.9095C19.3726 72.6389 20.0063 71.5011 20.7691 70.4322C22.6529 67.7927 28.2789 69.8655 31.2195 71.2312C31.9221 70.276 31.9351 69.2028 33.5068 67.8831C35.757 65.994 40.6815 73.5893 41.5789 76.2382C42.1451 77.9101 41.3279 78.6443 39.9047 79.2456C40.0422 79.875 40.534 81.2035 40.1246 82.0107C38.9393 84.3448 37.8242 85.4904 36.2796 86.6877ZM38.2505 83.5808C33.3959 84.5181 27.8556 81.5996 24.0762 78.1328C20.4449 74.8016 20.7334 72.5136 20.2456 72.5808C20.0654 72.9026 18.7701 75.829 19.2867 79.0233C19.623 81.1015 27.2682 80.3356 22.9901 85.0863C30.8456 91.1671 37.3377 85.6084 38.2505 83.5808ZM29.3873 76.5415C31.01 76.8189 32.3809 76.9156 33.5853 78.7482C33.8099 79.0903 33.9489 79.5676 34.2629 79.7516C34.636 79.9698 35.0758 79.5856 35.4935 79.4937C40.0832 78.485 42.6162 78.5931 39.704 74.1882C34.2016 65.8668 34.0516 67.9518 32.1292 71.3585C31.1832 73.034 30.2518 74.7179 29.3873 76.5415ZM22.3372 81.5498C16.3895 79.1521 16.8549 79.5479 17.0759 83.6429C17.1132 84.3351 17.2961 85.0112 17.4954 85.6735C17.7994 86.6877 18.4207 86.9499 19.3621 86.4971C22.1398 85.1612 25.2511 82.7238 22.3372 81.5498ZM18.3834 77.7198C18.3346 77.2195 18.677 76.6008 18.304 76.2491C18.0049 75.967 15.5241 75.1803 14.0928 75.2445C13.3065 75.2794 12.8872 75.6264 13.112 76.8164C13.2896 77.7556 14.1539 81.1702 15.0934 81.9964C15.3949 82.2614 15.7171 82.134 16.039 82.0489C16.6299 81.8929 15.7355 79.6085 17.3976 79.4419C18.771 79.3044 18.6071 80.0076 18.3834 77.7198ZM37.2706 91.5056C39.057 88.397 37.8554 88.192 36.0175 87.3907C35.6846 87.2458 35.4188 87.2129 35.0934 87.4054C32.6943 88.8263 31.4836 88.0874 32.0513 89.1044C34.8386 94.0921 35.298 94.9399 37.2706 91.5056ZM30.975 71.8266C26.3013 69.2339 20.2696 69.0511 20.9786 72.1468C21.804 71.898 22.6201 71.794 23.3694 72.2554C25.3776 73.4928 26.3026 72.0482 28.3029 73.3153C28.7484 73.5976 29.2184 73.8439 29.5888 74.2275L30.975 71.8266ZM38.1623 82.9287C39.9083 82.2615 39.7604 81.1344 39.1094 79.6463C39.0486 79.5073 38.9249 79.4757 38.7889 79.5234C38.2913 79.699 37.7391 79.677 37.1876 79.9365C38.0271 80.7737 38.8105 81.5906 38.1623 82.9287Z" fill="#FED6A4"/>
<path d="M37.3162 83.0478C37.1457 83.2017 36.9272 83.1609 36.7297 83.1656C31.3198 83.2972 22.1567 77.4216 21.1328 72.7554C23.2147 72.0446 23.3321 73.7775 25.6153 73.4668C26.9641 73.2835 27.9994 73.9036 28.9977 74.6682C29.2285 74.8451 29.3414 75.0271 29.1521 75.3149C28.3699 76.5042 29.2918 76.7888 26.835 75.5429C25.7173 74.9755 26.054 77.0419 30.1521 77.5545C32.7152 77.8757 32.9677 79.8035 34.0737 81.1173C34.6818 81.8395 35.5996 81.8805 35.3813 81.2674C35.2842 80.9953 35.0488 80.8213 34.8149 80.5582C35.2571 80.2486 35.7524 80.2341 36.202 80.1078C36.5373 80.0138 37.4646 81.2114 37.622 81.538C37.8284 81.9679 37.6567 82.7407 37.3162 83.0478Z" fill="#FED6A4"/>
<path d="M37.1856 76.6791C36.5897 76.3471 36.1674 77.2777 36.7759 77.5734C37.3687 77.8609 37.7721 77.0177 37.1856 76.6791Z" fill="#FED6A4"/>
<path d="M37.1729 73.7972C36.8016 73.568 36.3772 73.9946 36.5371 74.3699C36.5987 74.5139 36.7308 74.6097 36.876 74.6249C37.3308 74.6741 37.585 74.0556 37.1729 73.7972Z" fill="#FED6A4"/>
<path d="M39.2012 76.0407C39.4088 75.5251 38.6775 75.1659 38.4471 75.6646C38.224 76.149 38.9645 76.6257 39.2012 76.0407Z" fill="#FED6A4"/>
<path d="M28.9089 79.3266C28.2409 79.5115 28.4656 78.9649 26.8136 78.3284C24.3469 77.3792 24.8606 75.943 23.1024 75.1227C22.9673 75.0595 22.7845 74.992 22.8456 74.801C22.9231 74.5591 23.127 74.6527 23.2989 74.6842C25.1913 75.0328 24.4947 76.9014 27.7125 78.044C28.2947 78.2503 28.8199 78.5906 28.9089 79.3266Z" fill="#FED6A4"/>
<path d="M19.0982 82.0031C18.5903 81.7099 18.0553 82.4678 18.5689 82.8283C18.7796 82.9806 19.0897 82.9593 19.2822 82.703C19.4211 82.5106 19.3587 82.1545 19.0982 82.0031Z" fill="#FED6A4"/>
<path d="M19.3877 84.8347C19.5537 84.258 18.7867 83.9107 18.5209 84.4706C18.2647 85.0092 19.0176 85.4179 19.3682 84.8782C19.3762 84.8643 19.3842 84.8503 19.3877 84.8347Z" fill="#FED6A4"/>
<path d="M35.8192 89.0876C35.4093 88.8946 35.0888 89.5045 35.4457 89.7523C35.6144 89.8682 35.8489 89.8395 36.0025 89.6378C36.1056 89.5025 36.057 89.2027 35.8192 89.0876Z" fill="#FED6A4"/>
<path d="M36.1093 90.7875C36.1113 90.4677 35.6924 90.2982 35.487 90.6026C35.3511 90.8043 35.4466 90.9763 35.5326 91.0426C35.8275 91.2435 36.1086 91.0459 36.1093 90.7875Z" fill="#FED6A4"/>
<path d="M14.7519 76.3604C14.286 76.0924 13.8324 76.7544 14.2624 77.0973C14.4319 77.236 14.7004 77.2417 14.9014 77.0237C15.0327 76.8862 15.0225 76.5167 14.7519 76.3604Z" fill="#FED6A4"/>
<path d="M15.268 78.4898C15.4496 78.0242 14.7513 77.672 14.4936 78.128C14.4416 78.2196 14.3653 78.5317 14.6777 78.7121C14.8544 78.8141 15.1697 78.742 15.268 78.4898Z" fill="#FED6A4"/>
<path d="M147.248 76.8276C137.635 71.259 134.641 58.8497 140.051 49.5601C145.739 39.7958 157.878 36.8677 167.248 42.2123C177.177 47.8762 180.194 60.1087 174.664 69.6309C168.992 79.3968 156.888 82.412 147.248 76.8276ZM166.739 43.2996C158.333 38.3736 146.933 40.7266 141.384 49.8816C136.123 58.5619 138.575 69.8214 147.667 75.4567C156.297 80.8048 167.674 78.0799 173.106 69.6597C178.848 60.7593 176.178 48.8319 166.739 43.2996Z" fill="#FED6A4"/>
<path d="M108.595 71.5934C111.056 70.4742 122.079 74.8883 133.081 69.5767C136.47 67.9405 136.613 67.5395 136.899 68.0591C137.111 68.4429 136.751 68.6351 136.511 68.7848C125.496 75.6769 111.633 73.4 108.595 71.5934Z" fill="#FED6A4"/>
<path d="M163.336 57.7733C163.004 57.5007 162.714 57.4084 162.297 57.4654C158.877 57.9383 156.169 55.5072 155.835 53.6764C155.745 53.1859 155.544 53.0316 153.605 52.4308C151.863 51.8914 148.715 51.1659 147.358 52.3869C146.658 53.0155 146.81 53.6465 148.475 55.7245C149.651 57.1919 150.988 58.489 152.469 59.6418C153.32 58.611 154.374 58.4475 155.287 59.1768C156.379 60.0497 156.511 60.8688 155.73 61.9409C156.298 62.552 163.361 66.5179 168.329 66.1361C169.825 66.0208 169.04 62.4487 163.336 57.7733ZM151.653 54.5048C151.079 53.5471 153.269 53.7495 153.495 54.9033C153.649 55.6878 152.064 55.1913 151.653 54.5048ZM160.535 60.7486C159.991 59.2065 162.519 59.77 163.063 61.2744C163.601 62.7639 161.038 62.1746 160.535 60.7486Z" fill="#FED6A4"/>
<path d="M172.603 63.5435C172.645 60.3007 169.773 57.0611 167.387 54.8646C166.556 54.0988 166.823 54.2354 167.15 53.1415C167.288 52.6805 167.247 52.5779 166.8 52.3585C166.378 52.1515 165.907 52.0019 165.462 52.0324C163.47 52.168 162.196 51.0273 161.306 50.5207C156.503 47.7893 148.391 44.7884 145.485 49.5006C137.103 63.095 149.989 75.0272 160.608 73.5051C168.072 72.435 172.572 65.9023 172.603 63.5435ZM166.234 52.8576C166.833 52.9206 166.355 53.4998 166.065 54.0186C164.576 56.6804 162.207 57.2854 159.61 56.5497C159.121 56.4113 159.103 56.3451 159.263 55.8389C159.651 54.6058 160.535 53.835 161.648 53.2666C163.234 52.4576 164.789 52.7057 166.234 52.8576ZM155.286 59.1767C154.374 58.4474 153.32 58.6116 152.469 59.6418C150.988 58.489 149.65 57.1914 148.475 55.7244C146.81 53.6464 146.658 53.0154 147.358 52.3868C148.715 51.1658 151.863 51.8913 153.605 52.4307C155.544 53.0315 155.745 53.1858 155.835 53.6763C156.169 55.5075 158.877 57.9382 162.297 57.4654C162.713 57.4079 163.004 57.5006 163.336 57.7732C169.04 62.4486 169.825 66.0214 168.328 66.1367C163.361 66.5178 156.297 62.5526 155.729 61.9415C156.511 60.8687 156.379 60.0496 155.286 59.1767ZM155.292 61.2394C154.95 61.6014 154.697 61.2782 154.415 61.1256C153.527 60.4615 152.705 60.0497 153.433 59.6258C154.302 59.1187 155.923 60.5711 155.292 61.2394ZM158.424 55.8142C157.017 55.0087 155.898 53.0089 156.675 51.2487C158.098 51.5292 158.941 52.4346 159.409 53.7591C159.573 54.225 159.43 53.7693 158.424 55.8142ZM148.212 48.0561C152.979 46.583 161.702 51.2604 162.3 52.1276C161.412 52.4048 160.717 52.8781 160.015 53.432C159.561 51.973 158.551 51.1378 157.19 50.6915C155.941 50.2829 155.896 50.7848 155.668 52.281C154.767 52.1852 149.063 49.4123 146.533 52.1023C145.631 50.4455 146.39 48.6191 148.212 48.0561ZM144.278 61.6648C143.365 58.1322 143.962 54.9158 145.386 51.6055C145.706 50.8617 145.249 52.365 147.321 55.3172C151.658 61.4956 162.863 68.2075 170.068 66.6414C160.555 78.4482 146.487 70.213 144.278 61.6648ZM169.871 65.7802C169.804 62.3649 166.484 59.282 163.785 57.1124C164.872 56.5647 165.66 55.849 166.312 54.9458C170.773 58.7951 174.238 64.3662 169.871 65.7802Z" fill="#FED6A4"/>
<path d="M161.215 59.2203C158.656 59.0322 159.861 62.7831 162.426 62.8443C164.892 62.9034 163.674 59.4007 161.215 59.2203ZM160.534 60.749C159.99 59.2069 162.519 59.7697 163.063 61.2747C163.601 62.7643 161.037 62.175 160.534 60.749Z" fill="#FED6A4"/>
<path d="M154.283 54.8766C154.12 53.8292 152.698 52.9348 151.691 53.2486C150.479 53.6265 150.596 55.0188 151.945 55.7487C153.221 56.5872 154.44 55.8971 154.283 54.8766ZM151.652 54.5053C151.078 53.5476 153.268 53.75 153.494 54.9038C153.648 55.6883 152.064 55.1923 151.652 54.5053Z" fill="#FED6A4"/>
</g>
</g>
</g>
<defs>
<clipPath id="clip0_157716_2915">
<rect width="171" height="105" fill="white"/>
</clipPath>
</defs>
</svg>
